<svg xmlns="http://www.w3.org/2000/svg" width="1051" height="998" viewBox="0 0 1051 998">
<g>
<path d="M 617.74 595.57 C608.55,601.75 603.30,602.12 599.61,596.85 C596.73,592.74 597.73,586.86 605.42,562.75 C610.34,547.33 615.13,529.24 619.65,509.05 C624.26,488.43 627.14,477.60 628.57,475.49 C630.48,472.67 630.76,470.42 631.38,452.43 C631.77,441.47 632.94,409.77 633.99,382.00 C635.03,354.23 636.15,322.95 636.46,312.50 C636.77,302.05 637.29,288.83 637.62,283.13 C637.98,276.71 637.85,272.90 637.25,273.13 C636.73,273.33 625.00,286.10 611.18,301.50 C589.13,326.07 585.29,329.91 579.78,332.84 C574.24,335.80 572.81,336.14 567.61,335.77 C562.37,335.40 561.34,334.95 558.43,331.77 C554.52,327.51 553.01,322.67 553.01,314.40 C553.00,309.23 551.84,305.24 545.45,288.40 C529.89,247.41 527.89,243.01 521.81,236.41 C518.29,232.59 517.20,232.00 513.69,232.00 C510.15,232.00 509.09,232.59 505.21,236.75 C499.01,243.41 491.98,254.40 484.58,269.00 C476.49,284.96 472.00,296.35 467.63,312.00 C463.49,326.84 462.26,333.21 460.99,346.25 C458.97,367.13 463.78,381.71 475.86,391.29 C478.91,393.71 478.40,397.93 474.82,399.93 C472.53,401.22 471.08,401.25 464.82,400.18 C450.81,397.80 439.22,390.33 433.66,380.11 C427.29,368.42 425.48,350.01 428.06,323.42 C433.73,265.18 466.78,199.34 498.64,182.80 C525.66,168.78 546.87,179.90 564.53,217.34 C569.09,227.01 575.96,246.10 578.57,256.38 C581.78,269.02 582.13,270.12 582.87,269.81 C583.29,269.64 586.80,265.90 590.66,261.50 C602.25,248.31 617.89,231.94 625.93,224.59 C640.51,211.27 651.32,206.28 659.97,208.87 C670.81,212.12 675.67,230.27 676.71,271.41 C677.23,291.65 677.46,294.10 678.73,292.41 C679.94,290.81 680.09,285.46 679.66,259.00 C679.37,241.68 678.63,225.02 678.01,222.00 C677.39,218.98 674.86,210.28 672.40,202.68 C658.29,159.19 657.03,147.77 665.40,139.40 C669.80,135.00 675.48,133.63 686.50,134.33 C715.38,136.17 750.99,155.03 769.85,178.48 C783.16,195.01 789.77,211.83 791.60,233.77 C793.03,250.95 785.43,292.35 775.03,324.05 C767.89,345.78 755.04,372.59 750.25,375.75 C748.25,377.07 747.73,377.05 745.50,375.59 C742.23,373.45 742.30,371.08 745.97,358.05 C750.24,342.92 755.55,317.75 757.89,301.50 C760.46,283.72 761.63,267.00 760.30,267.00 C757.97,267.00 745.99,275.79 740.00,281.89 C736.42,285.53 730.30,293.23 726.39,299.00 L 719.27 309.50 L 718.10 332.00 C717.45,344.38 716.26,364.40 715.45,376.50 C714.08,396.81 713.38,422.96 714.03,429.06 C714.26,431.14 709.57,437.09 688.96,460.88 C661.37,492.75 657.20,497.95 654.69,503.69 C653.14,507.23 644.00,542.06 644.00,544.42 C644.00,545.00 650.86,538.71 659.25,530.44 C682.72,507.30 685.40,505.00 688.96,505.00 C691.35,505.00 692.27,505.58 693.02,507.56 C694.29,510.89 693.53,512.35 679.17,534.00 C671.12,546.15 664.81,554.36 658.54,560.85 C648.80,570.94 627.82,588.79 617.74,595.57 ZM 443.26 600.09 C440.36,601.19 439.22,601.16 436.06,599.90 C425.33,595.61 401.49,567.03 382.91,536.18 C380.48,532.15 377.83,527.79 377.00,526.49 C365.84,508.89 341.05,462.17 328.98,436.00 C306.62,387.51 293.50,351.20 285.64,316.00 C280.50,293.03 279.64,284.97 279.67,260.50 C279.76,193.76 295.23,146.60 325.48,120.83 C337.21,110.84 349.20,104.73 363.75,101.32 C369.79,99.91 375.26,99.53 388.50,99.63 C409.66,99.78 425.20,102.35 454.00,110.46 C492.16,121.21 524.38,121.19 548.57,110.40 C563.50,103.74 582.49,98.98 593.93,99.02 C599.94,99.04 614.72,102.30 623.50,105.54 C627.35,106.97 632.76,108.94 635.52,109.93 C643.63,112.84 667.15,123.83 669.16,125.64 C671.67,127.92 671.53,132.52 668.89,134.36 C667.03,135.67 666.32,135.65 662.64,134.21 C659.30,132.89 654.47,132.57 637.50,132.54 C617.85,132.50 615.82,132.67 605.91,135.22 C592.32,138.70 582.43,142.38 567.50,149.49 C532.45,166.18 515.42,167.03 467.50,154.49 C424.95,143.35 408.89,142.58 384.49,150.53 C349.14,162.03 330.92,183.52 325.42,220.21 C322.49,239.69 323.53,271.61 328.06,301.14 C334.90,345.79 347.21,383.76 371.04,433.71 C383.83,460.53 410.88,506.19 423.88,522.91 L 425.75 525.32 L 430.39 517.41 C432.94,513.06 441.30,496.90 448.96,481.50 C460.04,459.25 464.25,451.81 469.50,445.27 C476.86,436.10 485.67,429.05 494.58,425.19 C502.40,421.80 518.36,420.96 528.07,423.42 C544.42,427.57 564.26,440.53 581.11,458.07 C590.72,468.08 608.86,491.62 615.81,503.12 C619.42,509.09 618.36,515.00 613.68,515.00 C612.62,515.00 608.80,512.24 605.19,508.86 C591.82,496.35 566.42,479.45 541.69,466.62 C529.41,460.24 528.68,460.00 521.72,460.01 C511.95,460.02 506.42,462.72 497.93,471.62 C481.33,489.00 467.63,520.59 454.99,570.68 C451.77,583.42 448.36,595.05 447.40,596.52 C446.44,597.98 444.57,599.59 443.26,600.09 ZM 603.00 588.53 C603.00,591.05 603.23,591.20 606.17,590.62 C611.10,589.63 630.37,574.52 646.35,559.10 C652.12,553.53 658.43,546.06 682.82,515.87 C687.89,509.61 683.07,513.83 664.06,532.34 C645.34,550.57 636.43,558.00 633.30,558.00 C630.59,558.00 630.81,554.68 634.36,542.20 C636.35,535.22 639.54,523.24 641.47,515.59 C646.15,496.94 648.58,492.57 664.02,475.04 C667.67,470.89 678.09,458.89 687.17,448.36 L 703.68 429.23 L 704.33 411.36 C704.69,401.54 705.65,384.05 706.45,372.50 C707.26,360.95 708.41,342.05 709.01,330.50 C709.62,318.95 710.51,308.26 711.00,306.75 C713.46,299.18 730.29,277.28 739.47,269.71 C747.78,262.86 761.10,255.00 764.39,255.00 C766.95,255.00 767.01,255.13 766.54,260.25 C766.27,263.14 765.81,270.62 765.50,276.87 C764.82,290.93 762.18,314.05 761.10,315.46 C760.66,316.03 759.51,320.55 758.56,325.50 C757.60,330.45 755.75,338.97 754.43,344.44 C752.13,353.97 752.01,356.45 753.92,354.43 C754.41,353.92 757.37,346.30 760.51,337.50 C776.73,291.95 784.65,252.23 782.23,228.50 C779.69,203.62 771.55,186.17 755.49,171.14 C731.26,148.48 685.39,132.42 670.94,141.54 C665.82,144.77 664.68,147.80 665.31,156.50 C665.88,164.30 668.56,174.48 676.58,199.24 C679.56,208.44 682.49,219.02 683.08,222.74 C683.67,226.46 684.40,243.33 684.71,260.23 L 685.26 290.96 L 681.06 297.40 C677.66,302.63 676.93,304.56 677.18,307.67 C677.45,310.90 677.89,311.55 680.00,311.82 C682.97,312.20 684.94,314.42 684.41,316.80 C684.20,317.73 683.33,328.85 682.47,341.50 C680.32,373.19 674.99,434.42 673.41,445.57 C672.91,449.07 672.25,449.95 668.66,451.90 L 664.50 454.16 L 659.75 451.50 C655.64,449.19 655.00,448.40 655.00,445.66 C655.00,443.92 656.78,423.15 658.94,399.50 C665.49,328.06 667.03,311.82 667.37,295.56 C667.48,290.55 667.47,285.55 667.46,278.93 C667.46,277.99 667.46,277.01 667.46,276.00 C667.42,247.14 666.52,235.82 663.01,220.50 C661.91,215.69 658.90,213.00 654.64,213.01 C651.03,213.02 641.00,217.39 641.00,218.95 C641.00,219.53 640.31,220.00 639.47,220.00 C638.63,220.00 637.68,220.68 637.36,221.50 C637.05,222.32 636.19,223.00 635.46,223.00 C632.59,223.00 597.36,259.87 585.19,275.60 C582.06,279.65 579.35,282.52 579.17,281.98 C578.98,281.44 578.24,281.00 577.52,281.00 C576.69,281.00 575.58,278.14 574.52,273.25 C567.55,241.01 552.79,204.11 542.46,193.06 C526.85,176.37 505.31,179.03 484.77,200.19 C473.02,212.28 463.56,227.90 449.57,258.29 C442.13,274.45 435.34,300.40 433.01,321.57 C431.62,334.23 432.14,362.77 433.86,368.12 C436.81,377.31 447.49,386.57 459.10,390.03 C463.00,391.19 466.35,391.98 466.55,391.78 C466.75,391.58 465.06,388.97 462.80,385.97 C460.53,382.98 457.29,377.60 455.59,374.02 C452.53,367.56 452.50,367.35 452.55,351.50 C452.60,337.70 452.98,333.85 455.37,323.50 C463.39,288.74 479.70,252.80 496.72,232.41 C502.66,225.29 506.86,223.00 513.92,223.00 C518.76,223.00 519.34,223.29 524.38,228.25 C530.09,233.88 531.47,236.93 547.50,279.50 C550.61,287.75 553.96,296.52 554.95,299.00 C555.94,301.48 557.06,307.47 557.44,312.33 C558.34,324.06 559.19,325.76 564.55,326.56 C570.20,327.41 574.05,326.46 578.28,323.19 C580.20,321.71 594.19,306.68 609.38,289.79 C624.57,272.89 637.81,258.64 638.80,258.11 C639.80,257.57 641.21,257.51 641.95,257.97 C643.32,258.82 643.18,266.01 640.02,353.00 C639.55,365.92 638.38,398.55 637.43,425.50 C635.73,473.80 635.67,474.54 633.44,477.00 C631.68,478.95 629.86,485.34 625.18,506.00 C621.88,520.58 618.86,534.08 618.48,536.00 C618.10,537.92 614.46,549.92 610.39,562.66 C606.33,575.39 603.00,587.03 603.00,588.53 ZM 141.44 779.78 C139.92,781.95 139.42,782.00 120.01,782.00 C118.83,782.00 117.70,782.00 116.62,782.00 C104.96,782.02 99.81,782.03 97.95,779.56 C96.48,777.61 97.07,774.10 98.14,767.81 C98.27,767.08 98.40,766.31 98.53,765.50 C100.28,754.97 109.12,674.07 111.54,646.50 C112.46,636.05 113.62,626.71 114.14,625.75 C115.00,624.14 117.56,624.00 145.91,624.00 C169.38,624.00 177.00,624.30 177.77,625.25 C178.33,625.94 179.78,630.08 181.01,634.47 C182.23,638.85 186.36,649.87 190.20,658.97 C198.39,678.40 208.57,704.90 212.57,717.25 C214.14,722.06 215.66,726.00 215.96,725.99 C216.26,725.99 219.39,719.80 222.93,712.24 C226.46,704.68 236.16,685.67 244.47,670.00 C252.79,654.33 260.89,638.35 262.48,634.50 C264.08,630.62 264.74,628.16 266.31,626.61 C268.99,623.93 274.35,623.95 291.78,623.99 C294.16,623.99 296.77,624.00 299.62,624.00 C329.64,624.00 330.97,624.08 331.97,625.95 C332.69,627.30 332.71,632.96 332.03,644.20 C330.48,669.64 329.01,721.80 329.01,751.68 C329.00,775.05 328.78,779.08 327.43,780.43 C326.10,781.75 322.67,782.00 305.43,782.00 C286.40,782.00 284.86,781.86 283.02,780.02 C281.65,778.65 281.19,777.18 281.54,775.27 C282.14,771.88 285.02,696.64 284.95,686.09 L 284.90 678.50 L 278.78 690.50 C275.42,697.10 264.23,719.73 253.92,740.79 C243.61,761.86 234.63,779.74 233.96,780.54 C232.33,782.52 192.31,782.70 189.72,780.75 C188.81,780.06 182.25,763.53 175.15,744.00 C168.05,724.47 160.19,703.33 157.69,697.00 C155.18,690.67 152.64,684.20 152.04,682.61 C151.44,681.02 150.72,679.95 150.45,680.22 C149.72,680.94 143.03,762.26 143.01,770.53 C143.00,775.25 142.49,778.28 141.44,779.78 ZM 432.95 589.17 C435.39,590.73 437.99,592.00 438.72,592.00 C440.63,592.00 441.41,589.66 446.57,568.50 C454.12,537.57 464.60,507.83 474.23,490.00 C489.92,460.94 508.56,447.03 526.50,450.98 C537.68,453.45 577.46,476.42 595.05,490.56 C605.24,498.76 605.81,499.04 603.16,494.55 C598.47,486.59 585.13,470.14 575.50,460.42 C550.68,435.37 524.81,423.03 505.43,427.00 C495.63,429.01 489.91,432.36 480.62,441.52 C475.90,446.18 472.20,450.00 472.42,450.00 C472.63,450.00 471.51,451.38 469.93,453.07 C468.36,454.76 459.38,471.60 449.99,490.49 C438.33,513.95 431.67,526.21 428.98,529.17 L 425.05 533.50 L 423.03 531.00 C413.88,519.66 391.63,484.22 377.50,458.48 C342.19,394.14 326.50,350.31 318.06,292.37 C310.97,243.75 313.79,209.31 327.01,182.99 C331.45,174.14 343.29,158.47 348.99,153.89 C353.15,150.54 353.98,149.00 351.62,149.00 C350.86,149.00 349.67,148.30 348.96,147.45 C348.25,146.60 345.27,144.77 342.34,143.38 C339.40,141.99 337.00,140.49 337.00,140.04 C337.00,139.59 335.20,138.50 333.00,137.62 C330.80,136.74 329.00,135.76 329.00,135.45 C329.00,133.95 335.86,126.63 340.88,122.77 C351.69,114.45 360.75,110.82 375.46,108.92 C393.99,106.52 415.33,109.65 458.00,121.03 C474.01,125.30 488.19,127.21 504.09,127.22 C524.20,127.24 537.61,124.73 553.44,117.98 C566.85,112.27 579.25,108.94 589.56,108.30 C597.31,107.81 600.11,108.11 608.96,110.39 C614.64,111.86 624.29,115.01 630.40,117.40 C636.51,119.79 643.53,122.06 646.00,122.44 L 650.50 123.14 L 647.37 121.16 C643.13,118.47 623.53,110.73 612.50,107.37 C605.07,105.12 601.58,104.64 592.50,104.62 C579.44,104.60 571.11,106.56 552.70,114.00 C536.15,120.68 529.52,122.03 509.78,122.69 C491.06,123.32 475.67,121.69 460.18,117.43 C420.36,106.48 409.60,104.57 387.50,104.53 C366.46,104.50 359.35,106.01 345.15,113.55 C312.45,130.92 293.65,165.11 286.36,220.50 C285.12,229.92 284.64,240.80 284.63,260.00 C284.61,283.14 284.89,288.02 286.83,298.50 C293.18,332.87 306.59,373.62 325.93,417.34 C349.28,470.11 383.10,530.75 406.14,561.15 C414.12,571.68 427.59,585.75 432.95,589.17 ZM 103.58 775.25 C103.72,775.39 111.43,775.57 120.70,775.65 L 137.57 775.81 L 140.39 740.65 C145.33,678.91 147.44,659.00 149.03,659.00 C149.48,659.00 150.38,660.69 151.03,662.75 C151.68,664.81 156.43,677.30 161.59,690.50 C166.74,703.70 175.72,727.51 181.54,743.42 C187.35,759.33 192.49,773.05 192.96,773.92 C193.68,775.28 196.45,775.49 212.49,775.46 L 231.18 775.41 L 232.60 772.96 C233.39,771.60 246.40,745.41 261.53,714.75 C276.66,684.09 289.48,659.00 290.02,659.00 C291.43,659.00 291.24,685.53 289.49,733.34 C288.67,755.81 288.18,774.48 288.40,774.84 C288.63,775.20 296.70,775.50 306.34,775.50 L 323.87 775.50 L 324.46 739.00 C325.02,704.18 326.17,668.42 327.62,640.75 L 328.28 628.00 L 299.89 628.01 L 271.50 628.03 L 268.25 635.76 C266.46,640.02 258.64,655.42 250.87,670.00 C243.11,684.58 232.51,705.50 227.32,716.50 C222.14,727.50 217.45,736.95 216.90,737.49 C215.44,738.96 214.80,737.54 207.93,717.55 C200.66,696.43 195.76,683.67 186.18,660.93 C182.34,651.82 178.20,640.68 176.99,636.18 L 174.78 628.00 L 146.33 628.00 C129.39,628.00 118.11,628.37 118.45,628.91 C118.76,629.42 118.33,637.41 117.49,646.66 C115.19,672.06 106.15,756.29 104.64,766.25 C103.92,771.06 103.44,775.11 103.58,775.25 ZM 394.75 769.50 L 387.50 781.50 L 362.00 781.73 C345.91,781.87 335.85,781.58 334.75,780.93 C333.79,780.36 333.00,778.91 333.00,777.70 C333.01,776.49 337.64,768.97 343.31,761.00 C354.37,745.44 416.92,653.13 428.50,635.29 L 435.50 624.50 L 464.22 624.23 L 492.93 623.97 L 494.42 626.24 C495.24,627.49 499.79,637.06 504.53,647.50 C515.21,671.01 560.37,765.69 563.61,771.35 C566.46,776.35 566.58,778.17 564.17,780.35 C562.58,781.79 559.27,782.00 538.36,782.00 C520.67,782.00 513.98,781.67 512.83,780.75 C511.98,780.06 509.61,775.24 507.56,770.04 C505.51,764.83 500.61,753.47 496.67,744.79 L 489.50 729.01 L 419.50 729.05 L 410.75 743.27 C405.95,751.10 398.75,762.90 394.75,769.50 ZM 341.48 774.96 C341.66,775.26 351.59,775.50 363.54,775.50 L 385.27 775.50 L 396.09 758.00 C402.04,748.38 409.42,736.56 412.50,731.75 L 418.09 723.00 L 493.14 723.00 L 499.41 736.25 C502.86,743.54 508.07,755.12 510.99,762.00 C513.90,768.88 516.49,774.72 516.72,775.00 C516.96,775.27 526.97,775.51 538.96,775.54 L 560.75 775.59 L 554.98 764.04 C545.63,745.34 516.65,684.46 504.50,658.00 C498.31,644.53 492.67,632.26 491.97,630.75 L 490.68 628.00 L 438.95 628.00 L 438.09 630.25 C437.62,631.49 429.85,643.53 420.82,657.00 C392.18,699.73 362.92,742.98 351.86,758.96 C345.96,767.47 341.29,774.67 341.48,774.96 ZM 704.50 784.00 C665.40,786.83 636.73,782.06 611.24,768.50 C586.37,755.27 574.46,737.07 573.24,710.45 C572.33,690.33 578.04,672.75 590.32,657.92 C612.14,631.56 657.38,618.06 711.00,621.91 C736.37,623.73 743.92,624.93 745.47,627.39 C747.05,629.90 748.53,655.83 747.20,657.80 C745.96,659.63 744.08,659.55 730.50,657.09 C713.08,653.94 691.16,653.25 677.95,655.45 C653.61,659.49 637.63,670.08 629.19,687.77 C625.67,695.16 625.51,695.96 625.50,706.05 C625.50,716.24 625.63,716.86 629.27,724.24 C633.87,733.55 639.35,738.66 650.49,744.05 C663.35,750.27 669.75,751.45 690.50,751.44 C707.90,751.43 712.91,750.94 732.78,747.32 L 733.11 747.26 C738.99,746.18 742.20,745.59 743.63,746.93 C745.36,748.54 744.46,752.95 742.49,762.71 L 742.40 763.17 C740.69,771.60 738.84,778.14 737.89,779.09 C736.09,780.91 725.30,782.50 704.50,784.00 ZM 911.40 782.41 C893.28,784.45 864.16,785.16 852.01,783.85 C836.35,782.17 817.17,776.82 804.44,770.58 C785.97,761.53 775.86,752.11 768.90,737.50 C756.79,712.04 760.98,680.02 779.31,657.92 C801.23,631.48 847.78,617.71 901.00,621.90 C926.24,623.89 932.95,624.99 934.48,627.39 C936.08,629.91 937.55,655.83 936.21,657.80 C934.95,659.64 933.06,659.55 919.00,656.95 C901.10,653.63 872.52,653.54 859.73,656.76 C823.52,665.88 805.25,695.83 818.38,724.53 C823.43,735.55 837.61,745.43 854.50,749.69 C866.30,752.66 894.26,752.15 914.76,748.59 C932.95,745.43 934.57,745.67 933.73,751.44 C932.13,762.31 928.44,777.76 927.09,779.16 C925.93,780.38 921.69,781.26 911.40,782.41 ZM 928.80 805.80 C927.05,807.55 102.95,807.55 101.20,805.80 C100.54,805.14 100.00,801.98 100.00,798.78 C100.00,793.44 100.22,792.87 102.57,791.98 C106.23,790.58 925.46,790.64 928.07,792.04 C929.63,792.87 930.00,794.16 930.00,798.84 C930.00,802.01 929.46,805.14 928.80,805.80 ZM 656.00 776.45 C667.19,778.21 710.24,777.77 725.93,775.73 L 735.36 774.50 L 737.65 763.54 C738.91,757.52 740.18,751.98 740.47,751.23 C740.82,750.31 740.42,750.03 739.24,750.38 C738.28,750.66 731.65,751.91 724.50,753.16 C713.84,755.02 707.72,755.43 690.50,755.46 C671.48,755.50 668.75,755.28 661.55,753.20 C643.91,748.09 631.55,738.93 625.34,726.38 C622.00,719.62 621.63,718.02 621.21,708.65 C620.49,692.38 624.73,681.26 635.93,670.08 C652.67,653.36 671.86,647.24 704.00,648.38 C721.01,648.98 739.84,651.79 742.69,654.16 C744.08,655.31 744.18,654.90 743.66,650.48 C743.33,647.74 742.79,641.84 742.44,637.37 L 741.81 629.24 L 732.66 628.06 C707.96,624.90 683.16,624.47 667.00,626.94 C632.65,632.18 614.21,640.33 598.35,657.29 C585.76,670.74 579.97,684.45 579.25,702.50 C578.25,727.76 586.81,745.43 606.35,758.43 C619.88,767.43 636.12,773.33 656.00,776.45 ZM 845.00 776.48 C856.24,778.19 899.54,777.73 914.93,775.73 L 924.36 774.50 L 926.65 763.54 C927.91,757.52 929.18,751.98 929.47,751.23 C929.82,750.30 929.43,750.04 928.24,750.41 C927.28,750.71 920.65,751.95 913.50,753.18 C902.98,754.98 896.49,755.41 879.50,755.45 C860.46,755.50 857.76,755.28 850.55,753.20 C835.28,748.78 821.93,739.86 816.36,730.35 C807.89,715.90 807.81,695.89 816.17,681.34 C824.34,667.12 839.94,656.02 859.00,650.88 C866.46,648.86 869.88,648.58 887.00,648.54 C907.08,648.50 923.89,650.45 930.34,653.57 L 933.19 654.94 L 932.62 649.22 C932.31,646.07 931.78,640.29 931.44,636.37 L 930.82 629.24 L 922.16 628.10 C917.40,627.47 906.01,626.46 896.87,625.84 C863.80,623.64 830.70,629.07 810.18,640.07 C783.33,654.46 767.97,678.27 768.02,705.41 C768.06,729.12 776.82,746.10 795.35,758.43 C808.91,767.45 825.62,773.53 845.00,776.48 ZM 173.91 878.57 C169.05,879.81 160.63,880.32 139.00,880.71 C111.66,881.21 110.40,881.15 108.05,879.25 L 105.61 877.27 L 106.77 866.88 C107.41,861.17 108.46,847.05 109.09,835.50 C109.73,823.95 110.69,813.94 111.24,813.25 C112.00,812.30 119.23,812.00 141.16,812.00 C178.48,812.00 185.26,813.20 195.68,821.64 C205.51,829.59 208.55,845.29 202.61,857.39 C197.56,867.67 187.44,875.14 173.91,878.57 ZM 418.46 880.02 C413.69,881.83 396.97,882.14 391.24,880.52 C379.31,877.15 377.59,873.94 378.59,856.90 L 379.28 845.00 L 376.26 845.00 C371.95,845.00 370.63,842.84 370.86,836.19 C371.09,829.52 373.22,827.00 378.61,827.00 C381.68,827.00 382.00,826.73 382.00,824.12 C382.00,822.54 382.60,820.75 383.33,820.14 C384.82,818.90 396.32,817.05 402.71,817.02 C407.64,817.00 409.53,819.30 408.49,824.06 L 407.84 827.00 L 414.85 827.00 C423.79,827.00 425.00,828.07 425.00,836.00 C425.00,844.01 423.83,845.00 414.43,845.00 L 407.00 845.00 L 407.00 849.36 C407.00,851.76 406.71,855.81 406.36,858.36 L 405.73 863.00 L 411.11 862.99 C418.83,862.97 420.25,862.36 422.75,858.01 C426.14,852.11 434.24,848.63 452.00,845.41 C459.98,843.97 466.69,842.61 466.92,842.39 C468.74,840.67 441.23,843.44 435.79,845.53 C434.99,845.84 433.29,845.24 432.02,844.21 C429.75,842.38 429.73,842.23 431.14,836.42 C432.25,831.89 433.16,830.23 435.04,829.34 C441.26,826.40 470.89,824.96 481.20,827.10 C491.63,829.26 497.35,834.50 497.32,841.86 C497.31,843.31 496.72,852.06 496.00,861.30 C494.82,876.32 494.47,878.26 492.62,879.55 C490.12,881.31 472.95,881.58 469.84,879.92 C468.34,879.11 467.00,879.18 464.66,880.15 C462.72,880.97 457.46,881.47 451.00,881.47 C439.11,881.46 430.92,879.49 426.17,875.49 C424.54,874.12 422.99,873.00 422.73,873.00 C422.47,873.00 421.98,874.36 421.65,876.02 C421.24,878.03 420.19,879.36 418.46,880.02 ZM 113.36 867.88 L 112.70 875.27 L 139.60 874.73 C168.98,874.15 175.37,873.32 184.69,868.89 C195.33,863.84 201.02,854.81 200.98,843.07 C200.94,832.84 195.62,825.50 184.50,820.30 L 178.50 817.50 L 147.25 817.17 L 116.00 816.85 L 115.98 826.17 C115.96,834.71 115.07,848.83 113.36,867.88 ZM 515.37 801.25 C740.39,801.39 924.84,801.61 925.25,801.75 C925.66,801.89 926.00,800.65 926.00,799.00 L 926.00 796.00 L 105.28 796.00 L 105.76 798.50 L 106.23 801.00 ZM 642.06 880.95 C615.42,883.68 593.51,878.96 581.51,867.91 C570.93,858.15 569.76,840.81 578.90,829.24 C588.74,816.79 606.15,810.93 632.86,811.07 C648.17,811.15 656.46,812.06 658.26,813.86 C658.92,814.52 659.63,818.38 659.84,822.44 C660.30,831.66 659.27,832.57 650.35,830.82 C641.32,829.06 624.51,829.33 617.71,831.36 C603.61,835.55 597.92,847.69 606.26,855.77 C612.87,862.17 624.61,864.10 644.08,861.99 C659.63,860.31 659.97,860.54 657.45,870.92 C656.40,875.25 655.04,878.44 654.02,878.99 C653.09,879.49 647.71,880.37 642.06,880.95 ZM 312.00 879.00 C310.26,880.74 308.67,881.00 299.61,881.00 C291.08,881.00 288.82,880.68 286.99,879.19 C284.83,877.44 284.79,877.13 285.88,868.94 C286.49,864.30 287.47,853.53 288.05,845.00 C288.89,832.68 289.44,829.24 290.74,828.25 C292.80,826.68 312.27,826.54 315.12,828.07 C316.59,828.85 318.94,828.72 324.01,827.57 C342.52,823.36 362.16,827.51 366.45,836.53 C368.53,840.92 368.60,842.53 367.55,861.90 C366.95,872.77 366.81,877.55 364.37,879.58 C362.46,881.17 359.14,881.06 353.07,880.87 C352.71,880.86 352.33,880.85 351.95,880.84 C343.92,880.59 340.67,880.10 339.56,878.99 C338.24,877.67 338.20,875.66 339.23,863.12 L 340.42 848.76 L 338.10 846.88 C333.69,843.31 321.99,844.92 317.74,849.70 C315.88,851.79 314.09,862.47 314.03,871.75 C314.01,875.64 313.48,877.52 312.00,879.00 ZM 761.79 879.25 C760.16,880.67 757.95,880.99 750.14,880.94 C740.11,880.87 736.64,880.11 735.75,877.80 C735.47,877.05 735.82,871.31 736.54,865.05 C737.26,858.78 738.16,848.31 738.55,841.77 C739.05,833.54 739.71,829.44 740.70,828.44 C742.67,826.47 762.78,826.39 765.45,828.34 C766.98,829.46 767.93,829.42 771.39,828.11 C774.36,826.98 779.24,826.55 789.00,826.53 C801.57,826.51 802.89,826.69 808.22,829.19 C814.48,832.11 817.51,835.90 818.42,841.92 C818.72,843.89 818.39,852.86 817.69,861.86 C816.83,872.90 816.64,877.66 814.20,879.65 C812.35,881.15 809.19,881.05 803.44,880.87 C802.87,880.85 802.28,880.83 801.67,880.82 C792.20,880.54 790.65,880.25 789.37,878.50 C788.57,877.40 788.14,875.57 788.43,874.43 C788.72,873.29 789.25,866.66 789.63,859.71 L 790.30 847.07 L 787.59 846.03 C783.74,844.57 776.53,844.75 772.55,846.42 C767.07,848.70 765.90,851.55 764.80,865.24 C763.97,875.53 763.49,877.78 761.79,879.25 ZM 270.33 880.07 C264.58,881.41 242.27,882.02 235.95,881.01 C222.30,878.83 211.72,872.08 208.43,863.46 C207.28,860.43 206.89,857.11 207.17,852.65 C207.91,841.11 215.75,832.29 228.88,828.25 C236.94,825.78 259.26,825.81 267.36,828.31 C279.25,831.98 286.97,843.83 283.79,853.53 L 282.49 857.50 L 258.64 857.77 C237.30,858.01 234.92,858.20 236.06,859.58 C239.69,863.94 253.20,865.31 268.21,862.83 C275.00,861.71 275.38,861.75 277.06,863.83 C278.74,865.90 278.73,866.27 276.97,872.11 C275.95,875.47 274.90,878.43 274.64,878.70 C274.37,878.96 272.44,879.58 270.33,880.07 ZM 724.85 252.23 C720.09,255.40 716.01,258.00 715.79,258.00 C715.56,258.00 714.55,257.39 713.53,256.65 C711.85,255.42 711.74,254.29 712.34,244.40 C713.31,228.48 711.73,214.83 707.51,202.47 C703.14,189.66 703.03,186.11 706.92,181.77 C709.37,179.02 710.52,178.50 714.17,178.52 C720.49,178.56 727.17,182.37 736.71,191.38 C746.50,200.63 754.43,212.16 759.01,223.78 C760.81,228.33 762.10,232.16 761.89,232.28 C761.67,232.40 755.20,235.64 747.50,239.48 C739.80,243.32 729.61,249.06 724.85,252.23 ZM 917.80 879.75 C914.52,881.34 893.09,882.20 886.50,881.00 C874.32,878.78 866.41,874.25 862.19,867.07 C859.87,863.13 859.50,861.39 859.50,854.42 C859.50,847.18 859.81,845.84 862.50,841.52 C868.96,831.13 877.96,827.03 896.03,826.25 C910.42,825.62 921.35,827.24 923.51,830.31 C925.45,833.08 925.53,843.32 923.62,844.90 C922.59,845.76 919.89,845.75 912.79,844.88 C894.55,842.64 885.03,847.01 887.42,856.53 C888.54,860.98 893.38,862.99 903.00,862.99 C907.67,862.99 913.18,862.52 915.24,861.95 C922.57,859.91 924.35,863.11 921.67,873.50 C920.72,877.18 919.70,878.83 917.80,879.75 ZM 851.55 879.58 C850.17,880.60 846.57,881.00 838.92,881.00 C830.13,881.00 827.83,880.68 826.01,879.21 C823.87,877.48 823.83,877.14 824.88,868.46 C825.47,863.53 826.24,853.20 826.59,845.50 C827.01,836.38 827.71,830.73 828.61,829.30 C829.47,827.92 829.61,826.88 828.99,826.49 C827.58,825.62 827.75,813.65 829.20,812.20 C830.00,811.40 834.46,811.00 842.65,811.00 C853.16,811.00 855.04,811.24 855.86,812.71 C856.92,814.61 856.21,824.99 854.92,826.40 C854.47,826.90 854.57,828.19 855.15,829.27 C855.80,830.49 855.92,833.41 855.47,836.87 C855.07,839.97 854.46,850.53 854.12,860.33 C853.55,876.40 853.30,878.31 851.55,879.58 ZM 726.78 879.44 C725.11,880.61 722.07,880.98 714.53,880.93 C709.01,880.89 703.63,880.52 702.57,880.11 C699.89,879.05 699.23,876.49 700.14,870.58 C700.57,867.79 701.37,857.47 701.92,847.65 C702.47,837.83 703.36,829.27 703.90,828.62 C704.52,827.88 704.54,826.88 703.96,825.97 C702.70,823.98 702.75,815.33 704.04,812.93 C704.97,811.18 706.23,811.00 717.34,811.00 C725.54,811.00 730.00,811.40 730.80,812.20 C732.44,813.84 732.32,823.19 730.62,825.51 C729.61,826.88 729.52,827.86 730.27,829.07 C731.00,830.22 730.96,835.58 730.15,846.62 C729.52,855.35 729.00,865.96 729.00,870.19 C729.00,877.01 728.75,878.06 726.78,879.44 ZM 689.49 879.63 C688.20,880.58 684.46,881.00 677.42,881.00 C669.10,881.00 666.81,880.67 665.00,879.20 L 662.79 877.41 L 664.35 857.95 C665.21,847.25 666.22,833.18 666.60,826.68 C667.07,818.52 667.72,814.42 668.71,813.43 C669.79,812.36 672.98,812.00 681.50,812.00 C694.79,812.00 696.59,812.88 695.63,818.92 C695.12,822.15 692.62,855.93 691.72,871.88 C691.44,876.68 690.89,878.61 689.49,879.63 ZM 530.00 879.00 C528.26,880.74 526.67,881.00 517.61,881.00 C509.16,881.00 506.81,880.67 505.04,879.23 L 502.85 877.46 L 504.39 858.48 C505.24,848.04 506.24,833.95 506.61,827.18 C507.09,818.59 507.72,814.42 508.72,813.43 C509.78,812.36 513.00,812.00 521.50,812.00 C535.03,812.00 536.55,812.80 535.58,819.41 C534.71,825.25 532.02,864.41 532.01,871.25 C532.00,875.66 531.53,877.47 530.00,879.00 ZM 167.31 863.72 C161.54,865.86 158.23,866.32 145.60,866.76 L 130.70 867.28 L 131.33 859.89 C131.68,855.83 132.26,847.10 132.62,840.50 C132.99,833.90 133.68,827.42 134.17,826.10 L 135.06 823.70 L 150.82 824.25 C162.20,824.65 167.68,825.26 170.54,826.45 C181.79,831.15 185.79,842.65 180.08,853.84 C177.44,859.02 175.06,860.86 167.31,863.72 ZM 239.50 875.10 C242.80,875.52 249.51,875.66 254.40,875.43 C259.30,875.19 265.17,875.00 267.45,875.00 C271.45,875.00 271.62,874.87 272.69,870.88 L 273.78 866.77 L 269.64 867.40 C267.36,867.75 261.44,868.31 256.47,868.65 C240.40,869.75 229.50,864.61 230.19,856.27 L 230.50 852.50 L 280.00 852.50 L 280.00 849.72 C280.00,843.22 274.92,836.58 267.50,833.38 C262.34,831.16 241.77,830.28 233.78,831.94 C220.04,834.79 210.41,848.41 213.89,860.04 C216.16,867.60 226.01,873.39 239.50,875.10 ZM 616.68 874.98 C620.43,875.44 628.90,875.54 635.50,875.21 C642.10,874.88 648.49,874.58 649.69,874.55 C651.44,874.51 652.12,873.60 652.99,870.13 C653.59,867.72 653.96,865.62 653.79,865.46 C653.63,865.30 651.25,865.62 648.50,866.18 C645.75,866.74 638.33,867.26 632.00,867.34 C615.28,867.56 605.74,864.15 600.19,855.98 C596.83,851.04 597.37,841.82 601.32,836.65 C604.89,831.96 611.15,827.75 618.00,825.42 C624.46,823.22 644.91,822.82 651.44,824.77 C653.61,825.42 655.45,825.85 655.53,825.72 C655.61,825.60 655.48,823.61 655.24,821.30 C654.81,817.15 654.73,817.08 650.15,816.36 C641.97,815.07 618.01,815.64 610.33,817.30 C595.99,820.41 586.12,827.26 581.42,837.34 C577.64,845.46 578.44,853.68 583.70,860.77 C588.47,867.19 602.56,873.26 616.68,874.98 ZM 795.50 874.50 L 811.50 875.50 L 812.17 870.00 C812.53,866.97 813.14,859.10 813.53,852.50 C814.18,841.10 814.11,840.36 812.02,837.73 C807.68,832.25 804.88,831.50 788.91,831.50 L 774.33 831.50 L 769.10 834.75 C762.62,838.77 761.65,838.81 762.21,835.00 L 762.65 832.00 L 745.00 832.00 L 744.96 840.75 C744.93,845.56 744.30,854.90 743.56,861.50 C742.81,868.10 742.41,873.84 742.66,874.25 C742.91,874.66 746.68,875.00 751.04,875.00 C751.61,875.00 752.14,875.00 752.64,875.01 C755.66,875.03 757.38,875.04 758.40,874.20 C759.90,872.97 759.91,869.92 760.40,862.37 C761.22,849.48 764.36,844.10 773.30,840.22 C777.43,838.42 786.90,838.70 790.99,840.75 C796.42,843.48 797.18,845.90 796.39,858.00 C796.02,863.78 795.67,869.85 795.61,871.50 ZM 301.00 875.20 L 308.50 875.50 L 309.24 869.00 C311.56,848.78 312.29,846.82 319.16,842.27 C324.35,838.84 334.50,837.93 340.33,840.36 C346.34,842.88 347.33,846.52 345.98,861.21 C345.37,867.84 345.24,873.63 345.69,874.06 C346.13,874.49 349.92,875.00 354.11,875.17 L 361.72 875.50 L 362.91 858.68 C364.02,842.95 363.98,841.65 362.27,838.68 C359.22,833.37 354.17,831.59 340.97,831.17 C328.27,830.77 323.18,831.71 317.59,835.50 C312.84,838.72 312.00,838.65 312.00,835.00 L 312.00 832.00 L 294.50 832.00 L 294.83 837.75 C295.01,840.91 294.45,850.23 293.59,858.46 C292.73,866.69 292.36,873.76 292.76,874.16 C293.17,874.57 296.88,875.04 301.00,875.20 ZM 442.46 875.03 C445.23,875.44 450.95,875.72 455.17,875.64 C462.66,875.50 462.88,875.43 464.29,872.50 L 465.73 869.50 L 456.28 869.50 C447.51,869.50 446.68,869.33 444.89,867.11 C443.18,865.00 443.11,864.46 444.34,862.61 C446.61,859.16 450.92,857.25 461.50,855.00 C462.74,854.74 463.87,854.49 464.91,854.27 C471.21,852.90 473.81,852.33 474.79,853.34 C475.48,854.05 475.37,855.53 475.18,858.06 C475.14,858.65 475.09,859.29 475.05,860.00 C474.80,864.12 474.58,869.08 474.55,871.00 L 474.50 874.50 L 482.60 874.79 L 490.69 875.08 L 491.33 862.79 C491.68,856.03 492.26,847.94 492.62,844.81 C493.23,839.44 493.10,838.95 490.32,836.17 C485.88,831.73 478.83,830.63 459.00,831.31 C449.92,831.62 441.53,832.16 440.35,832.52 C438.25,833.16 436.52,837.58 438.00,838.50 C438.40,838.75 441.83,838.30 445.62,837.49 C455.09,835.49 469.87,835.52 472.78,837.56 C475.25,839.29 475.82,844.11 473.75,845.73 C473.06,846.27 465.34,847.91 456.60,849.38 C447.85,850.84 438.85,852.87 436.60,853.88 C422.40,860.27 425.80,872.52 442.46,875.03 ZM 485.00 700.54 C485.00,701.78 480.99,702.00 458.00,702.00 C442.08,702.00 431.00,701.62 431.00,701.07 C431.00,699.66 461.57,651.64 462.72,651.26 C463.74,650.92 485.00,697.92 485.00,700.54 ZM 721.00 235.54 C721.00,242.49 721.34,248.02 721.76,247.83 C722.17,247.65 727.01,244.96 732.51,241.85 C738.00,238.74 745.50,234.72 749.18,232.92 L 755.85 229.64 L 753.31 224.57 C745.20,208.43 724.51,188.00 716.27,188.00 C713.22,188.00 713.00,188.23 713.00,191.38 C713.00,193.24 714.09,197.66 715.42,201.19 C719.35,211.63 721.00,221.79 721.00,235.54 ZM 395.56 874.98 C400.75,875.89 415.98,875.28 417.23,874.12 C417.63,873.74 418.24,872.07 418.57,870.40 L 419.18 867.36 L 413.10 867.80 C408.57,868.13 406.37,867.82 404.51,866.60 C402.14,865.05 402.00,864.47 402.06,856.23 C402.09,851.43 402.44,845.70 402.83,843.50 L 403.54 839.50 L 420.00 839.50 L 420.00 835.79 L 420.00 832.08 L 411.79 831.79 L 403.59 831.50 L 403.87 826.16 C404.13,821.39 403.96,820.87 402.33,821.34 C401.32,821.62 397.71,822.15 394.30,822.52 L 388.11 823.18 L 387.80 827.34 L 387.50 831.50 L 377.00 832.10 L 377.00 835.55 C377.00,838.98 377.03,839.00 381.57,839.00 L 386.15 839.00 L 385.82 854.62 L 385.50 870.24 L 388.06 872.18 C389.47,873.24 392.85,874.50 395.56,874.98 ZM 888.78 874.98 C891.92,875.48 898.10,875.69 902.50,875.45 C906.90,875.21 911.89,875.01 913.58,875.01 C916.42,875.00 916.75,874.64 917.71,870.44 C918.63,866.39 918.57,865.95 917.12,866.51 C912.93,868.15 898.32,868.23 892.89,866.66 C886.69,864.85 884.38,862.83 882.98,857.94 C880.83,850.45 887.12,841.41 896.19,838.93 C900.47,837.77 915.71,838.16 919.20,839.51 C920.68,840.09 920.82,839.67 920.31,836.34 C919.98,834.23 919.52,832.28 919.28,832.00 C919.03,831.72 910.88,831.50 901.17,831.50 L 883.50 831.50 L 878.03 834.60 C868.49,840.01 863.58,850.02 866.02,859.08 C868.22,867.26 876.50,873.04 888.78,874.98 ZM 136.42 853.89 L 135.77 862.27 L 148.63 861.80 C162.08,861.31 165.72,860.30 170.85,855.63 C176.39,850.59 177.80,841.56 173.83,836.51 C170.24,831.94 166.44,831.00 151.65,831.00 L 138.23 831.00 L 137.65 838.25 C137.33,842.24 136.77,849.27 136.42,853.89 ZM 518.25 875.21 C524.97,875.45 526.54,875.22 526.72,874.00 C526.84,873.17 527.63,862.15 528.49,849.50 C529.35,836.85 530.32,824.36 530.65,821.75 L 531.26 817.00 L 513.00 817.00 L 512.99 825.75 C512.98,830.56 512.31,842.60 511.49,852.50 C510.68,862.40 510.01,871.49 510.01,872.71 C510.00,874.79 510.49,874.94 518.25,875.21 ZM 678.25 875.21 C684.97,875.45 686.54,875.22 686.73,874.00 C686.85,873.17 687.65,861.70 688.51,848.50 C689.36,835.30 690.33,822.81 690.66,820.75 L 691.26 817.00 L 673.00 817.00 L 672.99 825.25 C672.98,829.79 672.31,841.60 671.49,851.50 C671.28,854.12 671.08,856.45 670.90,858.52 C669.95,869.43 669.62,873.18 671.25,874.48 C672.11,875.16 673.51,875.17 675.64,875.17 C676.41,875.17 677.28,875.18 678.25,875.21 ZM 831.51 874.01 C831.84,874.56 835.85,875.00 840.40,875.00 L 848.69 875.00 L 849.33 859.25 C849.69,850.59 850.27,840.91 850.63,837.75 L 851.28 832.00 L 842.39 832.01 L 833.50 832.02 L 833.22 842.76 C833.07,848.67 832.48,857.89 831.92,863.26 C831.36,868.63 831.17,873.47 831.51,874.01 ZM 715.00 875.00 C719.67,875.28 723.59,875.28 723.69,875.00 C723.79,874.72 724.37,865.97 724.97,855.54 C725.57,845.11 726.33,835.55 726.64,834.29 C727.21,832.02 727.12,832.00 717.83,832.00 L 708.45 832.00 L 708.85 836.18 C709.16,839.48 708.06,857.96 706.69,872.50 C706.52,874.32 707.25,874.54 715.00,875.00 ZM 439.17 696.09 C438.97,696.62 446.90,697.00 457.92,697.00 C468.41,697.00 477.00,696.80 477.00,696.56 C477.00,695.14 462.16,662.56 461.41,662.33 C460.67,662.11 440.29,693.03 439.17,696.09 ZM 664.00 446.55 C664.00,448.84 666.96,448.24 667.89,445.75 C668.92,443.02 674.42,384.74 676.47,355.00 C677.28,343.17 678.18,330.48 678.48,326.79 C678.95,320.79 678.79,319.96 677.00,319.00 C675.38,318.13 675.00,318.24 675.00,319.55 C675.00,322.15 670.23,377.69 666.98,412.80 C665.34,430.56 664.00,445.75 664.00,446.55 ZM 264.00 846.40 L 264.00 849.00 L 247.50 849.00 C229.52,849.00 229.00,848.81 233.09,843.61 C236.63,839.11 242.05,837.00 250.06,837.00 C256.85,837.00 257.37,837.17 260.60,840.40 C262.72,842.52 264.00,844.78 264.00,846.40 ZM 842.25 822.26 C846.79,822.44 850.84,822.68 851.25,822.80 C851.66,822.91 852.00,821.20 852.00,819.00 L 852.00 815.00 L 834.00 815.00 L 834.00 821.92 ZM 717.75 822.26 C722.01,822.44 725.84,822.69 726.25,822.80 C726.66,822.91 727.00,821.20 727.00,819.00 L 727.00 815.00 L 717.89 815.00 C710.00,815.00 708.87,815.21 709.39,816.58 C709.73,817.45 710.00,819.01 710.00,820.04 C710.00,821.68 710.96,821.96 717.75,822.26 ZM 450.17 865.12 C451.78,866.15 453.87,866.19 461.76,865.37 C467.10,864.81 467.87,864.46 468.27,862.37 C468.81,859.56 468.43,859.52 459.32,861.43 C450.14,863.37 448.46,864.04 450.17,865.12 Z" fill="rgb(98,94,88)"/>
<path d="M 432.95 589.17 C427.59,585.75 414.12,571.68 406.14,561.15 C383.10,530.75 349.28,470.11 325.93,417.34 C306.59,373.62 293.18,332.87 286.83,298.50 C284.89,288.02 284.61,283.14 284.63,260.00 C284.64,240.80 285.12,229.92 286.36,220.50 C293.65,165.11 312.45,130.92 345.15,113.55 C359.35,106.01 366.46,104.50 387.50,104.53 C409.60,104.57 420.36,106.48 460.18,117.43 C475.67,121.69 491.06,123.32 509.78,122.69 C529.52,122.03 536.15,120.68 552.70,114.00 C571.11,106.56 579.44,104.60 592.50,104.62 C601.58,104.64 605.07,105.12 612.50,107.37 C623.53,110.73 643.13,118.47 647.37,121.16 L 650.50 123.14 L 646.00 122.44 C643.53,122.06 636.51,119.79 630.40,117.40 C624.29,115.01 614.64,111.86 608.96,110.39 C600.11,108.11 597.31,107.81 589.56,108.30 C579.25,108.94 566.85,112.27 553.44,117.98 C537.61,124.73 524.20,127.24 504.09,127.22 C488.19,127.21 474.01,125.30 458.00,121.03 C415.33,109.65 393.99,106.52 375.46,108.92 C360.75,110.82 351.69,114.45 340.88,122.77 C335.86,126.63 329.00,133.95 329.00,135.45 C329.00,135.76 330.80,136.74 333.00,137.62 C335.20,138.50 337.00,139.59 337.00,140.04 C337.00,140.49 339.40,141.99 342.34,143.38 C345.27,144.77 348.25,146.60 348.96,147.45 C349.67,148.30 350.86,149.00 351.62,149.00 C353.98,149.00 353.15,150.54 348.99,153.89 C343.29,158.47 331.45,174.14 327.01,182.99 C313.79,209.31 310.97,243.75 318.06,292.37 C326.50,350.31 342.19,394.14 377.50,458.48 C391.63,484.22 413.88,519.66 423.03,531.00 L 425.05 533.50 L 428.98 529.17 C431.67,526.21 438.33,513.95 449.99,490.49 C459.38,471.60 468.36,454.76 469.93,453.07 C471.51,451.38 472.63,450.00 472.42,450.00 C472.20,450.00 475.90,446.18 480.62,441.52 C489.91,432.36 495.63,429.01 505.43,427.00 C524.81,423.03 550.68,435.37 575.50,460.42 C585.13,470.14 598.47,486.59 603.16,494.55 C605.81,499.04 605.24,498.76 595.05,490.56 C577.46,476.42 537.68,453.45 526.50,450.98 C508.56,447.03 489.92,460.94 474.23,490.00 C464.60,507.83 454.12,537.57 446.57,568.50 C441.41,589.66 440.63,592.00 438.72,592.00 C437.99,592.00 435.39,590.73 432.95,589.17 ZM 446.01 268.98 C446.02,269.26 447.96,265.67 450.32,261.00 C466.31,229.32 475.12,215.72 487.92,202.90 C499.39,191.41 506.64,187.36 518.70,185.71 C527.40,184.51 528.04,184.28 526.01,182.99 C531.94,184.41 537.50,187.76 542.46,193.06 C546.70,197.60 551.69,206.49 556.58,217.63 C552.31,208.26 547.86,199.80 547.28,200.39 C546.95,200.71 547.46,202.69 548.40,204.78 C550.49,209.41 549.46,213.04 545.29,215.65 C543.76,216.62 539.96,219.57 536.86,222.21 C530.84,227.33 527.06,228.27 523.44,225.53 C519.69,222.69 520.33,224.05 524.98,228.75 C526.25,230.03 527.34,231.32 528.51,233.20 C527.20,231.16 525.95,229.80 524.38,228.25 C519.34,223.29 518.76,223.00 513.92,223.00 C506.86,223.00 502.66,225.29 496.72,232.41 C483.08,248.75 469.89,275.09 461.06,302.80 C463.78,293.94 466.68,285.56 468.72,281.00 C470.07,277.98 471.60,274.42 472.12,273.10 C473.21,270.34 472.72,270.65 466.15,276.90 C464.07,278.88 458.50,283.34 453.77,286.81 C446.33,292.28 444.91,293.82 443.13,298.31 C440.06,306.09 438.27,314.14 436.55,328.00 C435.69,334.88 434.26,342.91 433.37,345.86 C432.88,347.46 432.54,349.23 432.35,351.08 C432.05,340.86 432.22,328.70 433.01,321.57 C435.34,300.40 442.13,274.45 449.57,258.29 C451.45,254.21 453.24,250.41 454.97,246.84 C450.53,256.59 445.98,267.72 446.01,268.98 ZM 654.64 213.01 C656.25,213.00 657.68,213.39 658.90,214.12 C658.57,214.22 658.25,214.57 657.76,215.18 C657.07,216.06 654.87,217.06 652.87,217.41 C647.26,218.39 637.78,225.12 626.26,236.31 C614.88,247.35 594.90,269.27 587.37,278.96 C582.43,285.32 580.54,286.29 579.50,283.00 C579.16,281.92 578.30,281.03 577.57,281.00 C578.28,281.02 578.99,281.46 579.17,281.98 C579.35,282.52 582.06,279.65 585.19,275.60 C597.36,259.87 632.59,223.00 635.46,223.00 C636.19,223.00 637.05,222.32 637.36,221.50 C637.68,220.68 638.63,220.00 639.47,220.00 C640.31,220.00 641.00,219.53 641.00,218.95 C641.00,217.39 651.03,213.02 654.64,213.01 ZM 537.21 775.53 C547.30,775.48 557.37,775.21 557.65,774.76 C557.94,774.30 557.73,773.37 557.19,772.71 C556.18,771.47 520.26,696.55 505.38,664.62 C500.79,654.79 497.26,646.39 497.53,645.96 C497.79,645.52 497.62,645.02 497.13,644.84 C496.64,644.65 494.62,641.25 492.63,637.28 L 489.01 630.07 L 463.55 629.78 C443.70,629.56 438.89,629.68 437.89,630.66 C437.99,630.48 438.06,630.34 438.09,630.25 L 438.95 628.00 L 490.68 628.00 L 491.97 630.75 C492.67,632.26 498.31,644.53 504.50,658.00 C516.65,684.46 545.63,745.34 554.98,764.04 L 560.75 775.59 L 538.96 775.54 C538.37,775.54 537.79,775.54 537.21,775.53 ZM 603.00 588.53 C603.00,587.03 606.33,575.39 610.39,562.66 C614.46,549.92 618.10,537.92 618.48,536.00 C618.86,534.08 621.88,520.58 625.18,506.00 C629.86,485.34 631.68,478.95 633.44,477.00 C635.21,475.04 635.61,474.17 636.55,449.73 C636.03,467.46 636.14,473.55 636.81,473.77 C638.59,474.36 638.25,476.87 636.02,479.71 C633.72,482.63 632.75,485.76 629.89,499.50 C628.75,505.00 626.78,513.78 625.52,519.00 C624.26,524.22 622.46,532.10 621.52,536.50 C620.58,540.90 616.81,554.13 613.15,565.91 C608.18,581.89 606.06,587.43 604.75,587.77 C603.88,588.00 603.16,588.74 603.02,589.49 C603.00,589.22 603.00,588.90 603.00,588.53 ZM 322.69 775.50 L 323.33 724.02 C323.68,695.68 324.44,663.37 325.02,652.21 C325.59,641.05 325.80,631.49 325.47,630.96 C325.12,630.39 314.07,630.00 297.98,630.00 L 271.07 630.00 L 265.71 641.25 C262.76,647.44 255.03,662.40 248.54,674.50 C247.54,676.35 246.47,678.37 245.36,680.50 C247.28,676.80 249.15,673.24 250.87,670.00 C258.64,655.42 266.46,640.02 268.25,635.76 L 271.50 628.03 L 299.89 628.01 L 328.28 628.00 L 327.62 640.75 C326.17,668.42 325.02,704.18 324.46,739.00 L 323.87 775.50 ZM 215.70 737.68 C215.57,737.75 215.45,737.79 215.33,737.80 C214.06,737.99 212.98,737.41 212.56,736.30 C212.17,735.31 209.40,727.38 206.39,718.67 C199.16,697.69 194.53,685.67 186.51,667.00 C182.85,658.47 178.25,646.66 176.29,640.75 L 172.72 630.00 L 119.19 630.00 L 118.60 634.75 C118.47,635.87 118.26,637.88 118.02,640.34 C118.49,634.02 118.68,629.30 118.45,628.91 C118.11,628.37 129.39,628.00 146.33,628.00 L 174.78 628.00 L 176.99 636.18 C178.20,640.68 182.34,651.82 186.18,660.93 C195.76,683.67 200.66,696.43 207.93,717.55 C212.85,731.86 214.58,736.66 215.70,737.68 ZM 668.00 144.04 C668.00,144.59 669.67,144.33 671.75,143.46 C676.34,141.54 678.08,140.00 675.65,140.00 C674.43,140.00 672.39,140.76 670.73,141.67 C670.80,141.63 670.87,141.58 670.94,141.54 C680.58,135.45 704.22,140.58 726.08,151.40 C725.26,151.14 724.56,151.00 724.01,151.00 C722.62,151.00 715.42,149.41 708.00,147.47 C690.55,142.90 677.93,141.95 673.35,144.85 C671.43,146.07 669.93,148.02 669.54,149.82 C669.18,151.46 667.99,153.61 666.89,154.60 C666.00,155.41 665.52,156.10 665.36,157.10 C665.34,156.90 665.32,156.70 665.31,156.50 C664.82,149.73 665.40,146.40 668.09,143.73 C668.03,143.84 668.00,143.94 668.00,144.04 ZM 663.55 539.57 L 668.33 533.50 L 657.92 543.56 C652.19,549.10 645.52,555.06 643.10,556.81 C638.88,559.87 635.00,560.97 635.00,559.12 C635.00,558.74 634.47,558.28 633.72,557.96 C637.20,557.35 646.13,549.80 664.06,532.34 C683.07,513.83 687.89,509.61 682.82,515.87 C674.54,526.12 668.35,533.75 663.55,539.57 ZM 735.20 651.75 C738.91,652.39 741.52,652.79 741.60,652.71 C741.86,652.42 739.85,631.57 739.53,631.22 C739.38,631.06 733.69,630.20 726.88,629.31 C709.94,627.09 668.32,627.02 654.55,629.11 C658.46,628.33 662.60,627.61 667.00,626.94 C683.16,624.47 707.96,624.90 732.66,628.06 L 741.81 629.24 L 742.44 637.37 C742.79,641.84 743.33,647.74 743.66,650.48 C744.18,654.90 744.08,655.31 742.69,654.16 C741.74,653.37 739.03,652.54 735.20,651.75 ZM 925.78 651.97 C928.65,652.47 930.57,652.76 930.66,652.68 C930.98,652.36 928.91,631.60 928.51,631.19 C926.61,629.22 884.57,626.82 865.00,627.55 C851.73,628.05 840.99,629.36 831.53,631.78 C850.41,626.51 873.65,624.29 896.87,625.84 C906.01,626.46 917.40,627.47 922.16,628.10 L 930.82 629.24 L 931.44 636.37 C931.78,640.29 932.31,646.07 932.62,649.22 L 933.19 654.94 L 930.34 653.57 C929.16,652.99 927.62,652.46 925.78,651.97 ZM 724.85 252.23 C729.61,249.06 739.80,243.32 747.50,239.48 C755.20,235.64 761.67,232.40 761.89,232.28 C762.10,232.16 760.81,228.33 759.01,223.78 C757.01,218.70 754.36,213.63 751.20,208.77 C754.32,213.56 756.94,218.53 758.90,223.46 C760.65,227.84 762.62,231.77 763.29,232.19 C765.59,233.62 762.62,235.87 749.60,242.51 C742.51,246.13 732.57,251.77 727.51,255.04 C717.95,261.24 716.00,262.00 716.00,259.54 C716.00,258.73 715.03,257.55 713.85,256.92 C712.44,256.16 711.97,255.69 712.01,251.97 C712.01,255.10 712.44,255.85 713.53,256.65 C714.55,257.39 715.56,258.00 715.79,258.00 C716.01,258.00 720.09,255.40 724.85,252.23 ZM 120.70 775.65 C113.60,775.59 107.42,775.47 104.85,775.35 C107.39,775.46 113.46,775.58 120.42,775.64 L 137.00 775.78 L 137.00 768.18 C137.00,759.45 143.49,678.94 145.03,668.65 C145.82,663.35 147.25,659.79 148.82,659.12 C147.25,660.81 145.12,681.60 140.39,740.65 L 137.57 775.81 ZM 701.20 755.36 C685.56,756.10 668.27,755.88 661.45,754.45 C646.32,751.29 630.20,740.25 624.62,729.24 C616.76,713.71 617.07,696.81 625.47,683.80 C625.91,683.12 626.33,682.47 626.74,681.85 C622.39,689.55 620.74,698.00 621.21,708.65 C621.63,718.02 622.00,719.62 625.34,726.38 C631.55,738.93 643.91,748.09 661.55,753.20 C668.75,755.28 671.48,755.50 690.50,755.46 C694.64,755.46 698.13,755.43 701.20,755.36 ZM 889.52 755.35 C874.00,756.06 857.26,755.88 850.88,754.54 C831.59,750.50 815.94,737.85 810.33,721.76 C807.81,714.51 807.77,697.02 810.27,692.00 C815.88,680.77 820.06,674.49 825.96,668.93 C822.04,672.70 818.74,676.87 816.17,681.34 C807.81,695.89 807.89,715.90 816.36,730.35 C821.93,739.86 835.28,748.78 850.55,753.20 C857.76,755.28 860.46,755.50 879.50,755.45 C883.31,755.44 886.60,755.41 889.52,755.35 ZM 762.61 307.62 C762.05,313.02 761.58,318.53 761.43,321.66 C761.22,326.15 760.60,331.78 760.05,334.16 C758.31,341.72 758.97,340.79 763.03,330.00 C763.41,328.98 763.79,327.96 764.16,326.92 C762.99,330.41 761.78,333.94 760.51,337.50 C757.37,346.30 754.41,353.92 753.92,354.43 C752.01,356.45 752.13,353.97 754.43,344.44 C755.75,338.97 757.60,330.45 758.56,325.50 C759.51,320.55 760.66,316.03 761.10,315.46 C761.47,314.98 762.02,311.96 762.61,307.62 ZM 684.79 265.11 C685.19,284.93 685.61,290.71 686.58,291.28 C688.24,292.24 687.60,294.04 683.18,300.75 C681.27,303.64 679.08,306.00 678.29,306.00 C677.64,306.00 677.26,306.41 677.16,307.25 C677.00,304.38 677.81,302.39 681.06,297.40 L 685.26 290.96 ZM 674.97 431.31 C673.96,442.80 674.02,445.67 675.01,447.53 C676.20,449.74 676.10,450.27 674.07,452.42 C670.03,456.73 662.47,458.42 663.24,454.85 C663.38,454.19 661.59,452.57 659.25,451.25 C655.65,449.22 655.00,448.37 655.00,445.68 C655.00,448.40 655.65,449.19 659.75,451.50 L 664.50 454.16 L 668.66 451.90 C672.25,449.95 672.91,449.07 673.41,445.57 C673.76,443.06 674.31,438.00 674.97,431.31 ZM 431.01 526.75 C426.05,534.21 425.77,536.44 430.49,530.83 C432.96,527.89 448.53,498.00 447.59,498.00 C447.36,498.00 444.62,502.84 441.50,508.75 C438.38,514.66 433.66,522.76 431.01,526.75 ZM 733.72 774.71 L 735.85 764.53 C738.23,753.22 738.43,751.00 737.10,751.00 C736.84,751.00 735.19,751.26 732.75,751.67 C736.17,751.04 738.68,750.54 739.24,750.38 C740.42,750.03 740.82,750.31 740.47,751.23 C740.18,751.98 738.91,757.52 737.65,763.54 L 735.36 774.50 ZM 922.90 774.69 L 923.83 770.11 C926.47,757.19 927.31,751.98 926.82,751.49 C926.53,751.20 920.71,751.93 913.89,753.13 C913.22,753.24 912.52,753.36 911.77,753.47 C912.34,753.37 912.91,753.28 913.50,753.18 C920.65,751.95 927.28,750.71 928.24,750.41 C929.43,750.04 929.82,750.30 929.47,751.23 C929.18,751.98 927.91,757.52 926.65,763.54 L 924.36 774.50 ZM 616.50 504.37 C619.63,509.33 620.02,507.82 623.55,491.62 C625.22,484.00 627.25,477.44 628.53,475.56 L 628.57 475.49 C627.14,477.60 624.26,488.43 619.65,509.05 C618.95,512.17 618.25,515.24 617.54,518.26 C617.84,516.61 618.00,515.36 618.00,514.61 C618.00,513.05 617.73,512.87 616.80,513.80 C616.17,514.43 615.50,514.81 614.73,514.89 C618.21,514.12 619.02,509.42 616.50,504.37 ZM 704.00 648.38 C688.62,647.83 676.20,648.95 665.60,652.10 C670.18,650.71 675.14,649.70 680.77,648.95 C692.80,647.34 715.84,648.23 730.16,650.84 C722.74,649.65 713.11,648.70 704.00,648.38 ZM 775.55 287.60 C778.14,276.16 780.22,264.49 781.64,253.11 C782.12,249.30 782.43,245.60 782.57,242.00 C782.11,254.72 779.71,270.21 775.55,287.60 ZM 488.46 196.59 C481.80,202.93 475.00,211.42 468.75,221.17 C474.06,212.55 479.15,205.97 484.77,200.19 C485.99,198.92 487.23,197.73 488.46,196.59 ZM 628.55 636.53 C616.67,641.54 606.61,648.45 598.35,657.29 C606.95,648.10 616.31,641.49 628.55,636.53 ZM 288.40 774.84 C288.18,774.49 288.66,756.25 289.46,734.14 C288.66,756.31 288.22,774.55 288.49,774.82 C288.76,775.09 296.56,775.36 305.83,775.42 L 317.51 775.50 L 306.34 775.50 C296.70,775.50 288.63,775.20 288.40,774.84 ZM 454.04 370.60 L 452.50 367.50 L 452.55 351.52 C452.51,364.06 452.52,366.80 454.04,370.60 ZM 631.73 557.12 C630.56,556.03 631.16,553.27 633.87,543.94 C631.69,551.79 631.02,555.58 631.73,557.12 ZM 637.73 567.11 C643.20,562.12 648.61,556.79 653.40,551.62 C650.47,554.95 648.38,557.15 646.35,559.10 C643.54,561.81 640.64,564.50 637.73,567.11 ZM 666.05 238.03 C665.93,237.18 665.81,236.34 665.68,235.50 C664.17,226.04 663.27,221.14 662.34,218.36 C662.61,219.01 662.84,219.73 663.01,220.50 C664.39,226.53 665.37,231.93 666.05,238.03 ZM 515.86 182.39 C511.65,183.09 506.85,184.56 502.56,186.56 C507.06,184.26 511.52,182.87 515.86,182.39 ZM 680.98 361.81 C680.05,374.37 679.06,386.79 678.49,393.00 C678.24,395.71 677.93,399.08 677.59,402.76 C678.77,389.38 679.97,374.82 680.98,361.81 ZM 761.16 176.92 C760.79,176.51 760.42,176.10 760.03,175.69 C755.92,171.30 750.00,166.31 744.07,161.98 C748.21,164.87 752.07,167.94 755.49,171.14 C757.50,173.02 759.39,174.95 761.16,176.92 ZM 897.21 648.70 C905.16,648.85 910.06,649.22 915.24,650.04 C910.02,649.38 903.91,648.92 897.21,648.70 ZM 437.67 631.05 C437.21,632.23 429.73,643.76 420.84,657.00 C408.06,676.05 395.87,694.15 385.22,709.92 C396.22,693.63 408.57,675.27 420.82,657.00 C428.85,645.03 435.88,634.18 437.67,631.05 ZM 608.87 492.72 C600.38,480.77 588.33,465.60 581.11,458.07 C588.80,466.08 600.47,480.77 608.87,492.72 ZM 645.01 503.22 C645.88,500.52 646.62,498.47 647.09,497.56 C647.81,496.16 648.76,494.58 649.93,492.83 C647.87,496.16 646.36,499.39 645.01,503.22 ZM 566.76 244.68 C569.81,254.10 572.50,263.87 574.52,273.25 C572.85,265.53 569.82,254.51 566.76,244.68 ZM 442.37 380.45 C446.34,383.87 451.47,387.12 456.04,388.98 C450.98,387.00 446.23,383.99 442.37,380.45 ZM 780.01 214.38 C779.58,212.58 779.09,210.79 778.56,209.00 C777.42,205.18 776.31,201.87 775.15,198.89 C777.18,203.70 778.78,208.84 780.01,214.38 ZM 465.56 391.70 C466.68,391.54 465.79,390.15 463.58,387.25 C462.83,386.26 461.89,384.86 460.91,383.28 C461.57,384.29 462.22,385.21 462.80,385.97 C465.06,388.97 466.75,391.58 466.55,391.78 C466.49,391.84 466.14,391.81 465.56,391.70 ZM 433.29 365.25 C433.87,367.74 434.65,370.08 435.62,372.12 C434.88,370.80 434.29,369.46 433.86,368.12 C433.65,367.47 433.46,366.50 433.29,365.25 ZM 632.24 674.06 C634.33,671.43 636.30,669.46 638.90,667.25 C637.90,668.15 636.91,669.10 635.93,670.08 C634.60,671.40 633.37,672.73 632.24,674.06 ZM 642.67 273.91 C642.96,260.48 642.65,258.40 641.95,257.97 C641.99,258.00 642.03,258.02 642.07,258.04 C642.69,258.45 643.01,259.30 642.67,273.91 ZM 601.73 574.67 C599.07,583.68 597.99,588.80 598.14,592.19 C597.93,588.80 599.02,583.73 601.73,574.67 ZM 668.19 171.64 C670.12,178.71 672.97,188.10 676.58,199.24 C672.60,186.94 669.93,178.24 668.19,171.64 ZM 859.00 650.88 C856.98,651.42 855.00,652.03 853.07,652.71 C855.01,652.02 856.99,651.41 859.00,650.86 C863.94,649.52 866.92,648.95 873.40,648.73 C867.03,648.98 863.88,649.56 859.00,650.88 ZM 606.45 590.55 C608.24,589.87 610.63,588.53 613.44,586.67 C610.34,588.77 607.90,590.15 606.45,590.55 ZM 149.12 659.02 C149.20,659.01 149.27,659.00 149.35,659.00 C149.62,659.00 150.38,660.69 151.03,662.75 C150.42,660.82 149.59,659.22 149.12,659.02 ZM 611.24 513.79 C609.65,512.82 607.70,511.21 605.19,508.86 C607.34,510.87 609.57,512.67 611.24,513.79 ZM 684.41 316.80 C684.67,315.61 684.31,314.46 683.52,313.56 C684.31,314.46 684.68,315.61 684.42,316.80 C684.29,317.39 683.80,323.29 683.16,331.67 C683.76,323.55 684.26,317.48 684.41,316.80 ZM 722.49 776.11 C722.87,776.07 723.25,776.02 723.60,775.98 L 729.40 775.27 L 725.93 775.73 C724.90,775.86 723.74,775.99 722.49,776.11 ZM 115.49 667.17 C114.24,679.61 112.47,696.45 110.71,712.76 C112.40,697.04 114.14,680.53 115.49,667.17 ZM 911.59 776.10 C911.97,776.06 912.34,776.01 912.70,775.97 L 918.27 775.29 L 914.93 775.73 C913.93,775.86 912.81,775.98 911.59,776.10 ZM 712.55 239.85 C712.76,232.54 712.43,225.81 711.54,219.48 C712.44,225.86 712.77,232.62 712.55,239.85 ZM 638.56 526.79 C639.40,523.61 640.23,520.43 640.95,517.56 C641.16,516.76 641.37,515.95 641.58,515.15 C640.66,518.80 639.63,522.76 638.56,526.79 ZM 609.57 599.89 C611.40,599.29 613.46,598.27 615.79,596.83 C613.29,598.39 611.28,599.36 609.57,599.89 ZM 845.00 776.48 C838.94,775.56 833.15,774.33 827.63,772.80 C833.15,774.33 838.95,775.56 845.00,776.47 C845.91,776.61 846.99,776.73 848.24,776.85 C846.98,776.74 845.89,776.62 845.00,776.48 ZM 656.00 776.45 C650.41,775.57 645.10,774.47 640.07,773.15 C645.11,774.47 650.41,775.57 656.00,776.45 C656.91,776.59 658.00,776.72 659.26,776.83 C657.99,776.72 656.89,776.59 656.00,776.45 ZM 678.08 311.08 C678.52,311.49 679.13,311.71 680.00,311.82 C679.09,311.70 678.49,311.52 678.08,311.08 ZM 639.69 361.96 C639.82,358.41 639.93,355.37 640.02,353.00 C640.12,350.07 640.23,347.23 640.33,344.48 C640.13,349.95 639.92,355.77 639.69,361.96 ZM 752.71 875.01 C752.68,875.01 752.66,875.01 752.64,875.01 C752.60,875.01 752.56,875.01 752.52,875.01 C752.58,875.01 752.64,875.01 752.71,875.01 Z" fill="rgb(189,182,166)"/>
<path d="M 663.55 539.57 C659.18,544.88 655.97,548.69 653.40,551.62 C648.61,556.79 643.20,562.12 637.73,567.11 C628.76,575.16 619.74,582.40 613.44,586.67 C610.63,588.53 608.24,589.87 606.45,590.55 C606.36,590.58 606.26,590.60 606.17,590.62 C603.66,591.12 603.13,591.08 603.02,589.49 C603.16,588.74 603.88,588.00 604.75,587.77 C606.06,587.43 608.18,581.89 613.15,565.91 C616.81,554.13 620.58,540.90 621.52,536.50 C622.46,532.10 624.26,524.22 625.52,519.00 C626.78,513.78 628.75,505.00 629.89,499.50 C632.75,485.76 633.72,482.63 636.02,479.71 C638.25,476.87 638.59,474.36 636.81,473.77 C636.14,473.55 636.03,467.46 636.55,449.73 C636.80,443.39 637.08,435.45 637.43,425.50 C638.21,403.50 639.13,377.72 639.69,361.96 C639.92,355.77 640.13,349.95 640.33,344.48 C641.68,307.15 642.41,285.96 642.67,273.91 L 642.67 273.89 C643.01,259.30 642.69,258.45 642.07,258.04 C642.03,258.02 641.99,258.00 641.95,257.97 C641.21,257.51 639.80,257.57 638.80,258.11 C637.81,258.64 624.57,272.89 609.38,289.79 C594.19,306.68 580.20,321.71 578.28,323.19 C574.05,326.46 570.20,327.41 564.55,326.56 C559.19,325.76 558.34,324.06 557.44,312.33 C557.06,307.47 555.94,301.48 554.95,299.00 C553.96,296.52 550.61,287.75 547.50,279.50 C535.89,248.67 531.97,238.57 528.51,233.20 L 528.51 233.20 C527.34,231.32 526.25,230.03 524.98,228.75 C520.33,224.05 519.69,222.69 523.44,225.53 C527.06,228.27 530.84,227.33 536.86,222.21 C539.96,219.57 543.76,216.62 545.29,215.65 C549.46,213.04 550.49,209.41 548.40,204.78 C547.46,202.69 546.95,200.71 547.28,200.39 C547.86,199.80 552.31,208.26 556.58,217.63 C560.14,225.73 563.64,235.02 566.76,244.69 C569.82,254.51 572.85,265.53 574.52,273.25 C575.58,278.14 576.69,281.00 577.52,281.00 C577.54,281.00 577.55,281.00 577.57,281.00 C578.30,281.03 579.16,281.92 579.50,283.00 C580.54,286.29 582.43,285.32 587.37,278.96 C594.90,269.27 614.88,247.35 626.26,236.31 C637.78,225.12 647.26,218.39 652.87,217.41 C654.87,217.06 657.07,216.06 657.76,215.18 C658.25,214.57 658.57,214.22 658.90,214.12 C660.39,215.02 661.56,216.45 662.34,218.36 C663.27,221.14 664.17,226.04 665.68,235.50 C665.81,236.34 665.93,237.18 666.05,238.03 L 666.05 238.03 C667.10,247.44 667.44,258.49 667.46,276.00 C667.46,277.01 667.46,277.99 667.46,278.93 L 667.46 278.94 C667.47,285.55 667.48,290.55 667.37,295.56 C667.03,311.82 665.49,328.06 658.94,399.50 C656.78,423.15 655.00,443.92 655.00,445.66 L 655.00 445.68 C655.00,448.37 655.65,449.22 659.25,451.25 C661.59,452.57 663.38,454.19 663.24,454.85 C662.47,458.42 670.03,456.73 674.07,452.42 C676.10,450.27 676.20,449.74 675.01,447.53 C674.02,445.67 673.96,442.80 674.97,431.31 C675.74,423.52 676.65,413.53 677.59,402.76 L 677.60 402.75 C677.93,399.08 678.24,395.71 678.49,393.00 C679.06,386.79 680.05,374.37 680.98,361.81 L 680.98 361.81 C681.56,354.35 682.07,347.41 682.47,341.50 C682.71,338.05 682.94,334.72 683.16,331.67 C683.80,323.29 684.29,317.39 684.42,316.80 C684.68,315.61 684.31,314.46 683.52,313.56 C682.72,312.66 681.48,312.01 680.00,311.82 C679.13,311.71 678.52,311.49 678.08,311.08 C677.54,310.51 677.34,309.50 677.18,307.67 C677.17,307.53 677.16,307.39 677.16,307.25 C677.26,306.41 677.64,306.00 678.29,306.00 C679.08,306.00 681.27,303.64 683.18,300.75 C687.60,294.04 688.24,292.24 686.58,291.28 C685.61,290.71 685.19,284.93 684.79,265.11 L 684.71 260.23 C684.40,243.33 683.67,226.46 683.08,222.74 C682.49,219.02 679.56,208.44 676.58,199.24 C672.60,186.94 669.93,178.24 668.19,171.65 C666.51,165.30 665.68,160.89 665.36,157.10 C665.52,156.10 666.00,155.41 666.89,154.60 C667.99,153.61 669.18,151.46 669.54,149.82 C669.93,148.02 671.43,146.07 673.35,144.85 C677.93,141.95 690.55,142.90 708.00,147.47 C715.42,149.41 722.62,151.00 724.01,151.00 C724.56,151.00 725.26,151.14 726.08,151.40 C732.35,154.50 738.47,158.07 744.07,161.98 C750.00,166.31 755.92,171.30 760.03,175.69 C760.42,176.10 760.79,176.51 761.16,176.92 C767.14,183.57 771.74,190.76 775.15,198.89 C776.31,201.87 777.42,205.18 778.56,209.00 C779.09,210.79 779.58,212.58 780.01,214.38 C780.98,218.82 781.72,223.51 782.23,228.50 C782.64,232.55 782.75,237.07 782.57,242.00 C782.43,245.60 782.12,249.30 781.64,253.11 C780.22,264.49 778.14,276.16 775.55,287.60 C772.61,299.86 768.79,313.07 764.16,326.92 C763.79,327.96 763.41,328.98 763.03,330.00 C758.97,340.79 758.31,341.72 760.05,334.16 C760.60,331.78 761.22,326.15 761.43,321.66 C761.58,318.53 762.05,313.02 762.61,307.62 C763.76,299.29 765.05,286.12 765.50,276.87 C765.81,270.62 766.27,263.14 766.54,260.25 C767.01,255.13 766.95,255.00 764.39,255.00 C761.10,255.00 747.78,262.86 739.47,269.71 C730.29,277.28 713.46,299.18 711.00,306.75 C710.51,308.26 709.62,318.95 709.01,330.50 C708.41,342.05 707.26,360.95 706.45,372.50 C705.65,384.05 704.69,401.54 704.33,411.36 L 703.68 429.23 L 687.17 448.36 C678.09,458.89 667.67,470.89 664.02,475.04 C657.25,482.73 652.98,487.89 649.92,492.83 C648.76,494.58 647.81,496.16 647.09,497.56 C646.62,498.47 645.88,500.52 645.01,503.22 C643.84,506.58 642.78,510.39 641.58,515.15 C641.37,515.95 641.16,516.76 640.95,517.56 C640.23,520.43 639.40,523.61 638.56,526.79 C637.08,532.40 635.51,538.14 634.36,542.20 C634.19,542.80 634.03,543.38 633.87,543.94 C631.16,553.27 630.56,556.03 631.73,557.12 C632.03,557.75 632.55,558.00 633.30,558.00 C633.43,558.00 633.57,557.99 633.72,557.96 C634.47,558.28 635.00,558.74 635.00,559.12 C635.00,560.97 638.88,559.87 643.10,556.81 C645.52,555.06 652.19,549.10 657.92,543.56 L 668.33 533.50 ZM 103.58 775.25 C103.44,775.11 103.92,771.06 104.64,766.25 C105.39,761.30 108.00,738.04 110.71,712.76 L 110.72 712.75 L 110.77 712.24 C112.44,696.67 114.15,680.38 115.49,667.17 C116.34,658.76 117.04,651.60 117.49,646.66 C117.69,644.46 117.87,642.32 118.02,640.34 C118.26,637.88 118.47,635.87 118.60,634.75 L 119.19 630.00 L 172.72 630.00 L 176.29 640.75 C178.25,646.66 182.85,658.47 186.51,667.00 C194.53,685.67 199.16,697.69 206.39,718.67 C209.40,727.38 212.17,735.31 212.56,736.30 C212.98,737.41 214.06,737.99 215.33,737.80 C215.45,737.79 215.57,737.75 215.70,737.68 C216.14,738.09 216.49,737.91 216.90,737.49 C217.45,736.95 222.14,727.50 227.32,716.50 C231.35,707.95 238.66,693.40 245.36,680.50 C246.47,678.37 247.54,676.35 248.54,674.50 C255.03,662.40 262.76,647.44 265.71,641.25 L 271.07 630.00 L 297.98 630.00 C314.07,630.00 325.12,630.39 325.47,630.96 C325.80,631.49 325.59,641.05 325.02,652.21 C324.44,663.37 323.68,695.68 323.33,724.02 L 322.69 775.50 L 317.51 775.50 L 305.83 775.42 C296.56,775.36 288.76,775.09 288.49,774.82 C288.22,774.55 288.66,756.31 289.46,734.14 L 289.49 733.41 L 289.49 733.34 C291.24,685.53 291.43,659.00 290.02,659.00 C289.48,659.00 276.66,684.09 261.53,714.75 C246.40,745.41 233.39,771.60 232.60,772.96 L 231.18 775.41 L 212.49 775.46 C196.45,775.49 193.68,775.28 192.96,773.92 C192.49,773.05 187.35,759.33 181.54,743.42 C175.72,727.51 166.74,703.70 161.59,690.50 C156.43,677.30 151.68,664.81 151.03,662.75 C150.38,660.69 149.62,659.00 149.35,659.00 C149.27,659.00 149.20,659.01 149.12,659.02 C149.09,659.01 149.06,659.00 149.03,659.00 C148.96,659.00 148.89,659.04 148.82,659.12 C147.25,659.79 145.82,663.35 145.03,668.65 C143.49,678.94 137.00,759.45 137.00,768.18 L 137.00 775.78 L 120.42 775.64 C113.47,775.58 107.41,775.46 104.86,775.35 L 104.85 775.35 C104.06,775.31 103.62,775.28 103.58,775.25 ZM 341.48 774.96 C341.29,774.67 345.96,767.47 351.86,758.96 C358.19,749.81 370.49,731.73 385.22,709.92 L 385.24 709.88 C395.89,694.12 408.07,676.03 420.84,657.00 C429.73,643.76 437.21,632.23 437.67,631.05 C437.76,630.90 437.83,630.77 437.89,630.66 C438.89,629.68 443.70,629.56 463.55,629.78 L 489.01 630.07 L 492.63 637.28 C494.62,641.25 496.64,644.65 497.13,644.84 C497.62,645.02 497.79,645.52 497.53,645.96 C497.26,646.39 500.79,654.79 505.38,664.62 C520.26,696.55 556.18,771.47 557.19,772.71 C557.73,773.37 557.94,774.30 557.65,774.76 C557.37,775.21 547.30,775.48 537.21,775.53 C526.01,775.49 516.95,775.26 516.72,775.00 C516.49,774.72 513.90,768.88 510.99,762.00 C508.07,755.12 502.86,743.54 499.41,736.25 L 493.14 723.00 L 418.09 723.00 L 412.50 731.75 C409.42,736.56 402.04,748.38 396.09,758.00 L 385.27 775.50 L 363.54 775.50 C351.59,775.50 341.66,775.26 341.48,774.96 ZM 925.78 651.97 C922.94,651.22 919.37,650.57 915.24,650.04 C910.06,649.22 905.16,648.85 897.21,648.70 C893.93,648.59 890.52,648.53 887.00,648.54 C881.07,648.55 876.78,648.60 873.40,648.73 L 873.39 648.73 C866.92,648.95 863.94,649.52 859.00,650.86 C856.99,651.41 855.01,652.02 853.07,652.70 L 853.07 652.71 C842.47,656.40 833.18,661.99 825.96,668.93 C820.06,674.49 815.88,680.77 810.27,692.00 C807.77,697.02 807.81,714.51 810.33,721.76 C815.94,737.85 831.59,750.50 850.88,754.54 C857.26,755.88 874.00,756.06 889.52,755.35 C898.88,755.16 904.49,754.66 911.77,753.47 C912.52,753.36 913.22,753.24 913.89,753.13 C920.71,751.93 926.53,751.20 926.82,751.49 C927.31,751.98 926.47,757.19 923.83,770.11 L 922.90 774.69 L 918.27 775.29 L 912.70 775.97 C912.34,776.01 911.97,776.05 911.59,776.10 L 911.59 776.10 C895.53,777.64 861.88,778.02 848.24,776.85 C846.99,776.73 845.91,776.61 845.00,776.47 C838.95,775.56 833.15,774.33 827.63,772.80 C815.49,769.44 804.68,764.63 795.35,758.43 C776.82,746.10 768.06,729.12 768.02,705.41 C767.97,678.27 783.33,654.46 810.18,640.07 C816.29,636.80 823.52,634.01 831.53,631.78 C840.99,629.36 851.73,628.05 865.00,627.55 C884.57,626.82 926.61,629.22 928.51,631.19 C928.91,631.60 930.98,652.36 930.66,652.68 C930.57,652.76 928.65,652.47 925.78,651.97 ZM 735.20 651.75 C733.68,651.43 731.99,651.13 730.16,650.84 C715.84,648.23 692.80,647.34 680.77,648.95 C675.14,649.70 670.18,650.71 665.60,652.10 C655.35,655.14 646.80,660.08 638.90,667.25 C636.30,669.46 634.33,671.43 632.24,674.06 C630.07,676.61 628.24,679.19 626.74,681.85 C626.33,682.47 625.91,683.12 625.47,683.80 C617.07,696.81 616.76,713.71 624.62,729.24 C630.20,740.25 646.32,751.29 661.45,754.45 C668.27,755.88 685.56,756.10 701.20,755.36 C710.92,755.15 716.40,754.57 724.50,753.16 C727.46,752.64 730.33,752.12 732.75,751.67 L 732.75 751.67 C735.19,751.26 736.84,751.00 737.10,751.00 C738.43,751.00 738.23,753.22 735.85,764.53 L 733.72 774.71 L 729.40 775.27 L 723.60 775.98 C723.25,776.02 722.88,776.07 722.49,776.11 L 722.49 776.11 C706.23,777.67 672.84,778.04 659.26,776.83 L 659.26 776.83 C658.00,776.72 656.91,776.59 656.00,776.45 C650.41,775.57 645.11,774.48 640.08,773.15 L 640.07 773.15 C627.20,769.76 616.08,764.90 606.35,758.43 C586.81,745.43 578.25,727.76 579.25,702.50 C579.97,684.45 585.76,670.74 598.35,657.29 C606.95,648.10 616.31,641.49 628.55,636.53 C635.99,633.52 644.50,631.11 654.55,629.11 C668.32,627.02 709.94,627.09 726.88,629.31 C733.69,630.20 739.38,631.06 739.53,631.22 C739.85,631.57 741.86,652.42 741.60,652.71 C741.52,652.79 738.91,652.39 735.20,651.75 ZM 712.55 239.85 C712.50,241.35 712.44,242.86 712.34,244.40 C712.13,247.88 712.01,250.27 712.01,251.97 C711.97,255.69 712.44,256.16 713.85,256.92 C715.03,257.55 716.00,258.73 716.00,259.54 C716.00,262.00 717.95,261.24 727.51,255.04 C732.57,251.77 742.51,246.13 749.60,242.51 C762.62,235.87 765.59,233.62 763.29,232.19 C762.62,231.77 760.65,227.84 758.90,223.46 C756.94,218.53 754.32,213.56 751.20,208.77 C747.14,202.51 742.21,196.59 736.71,191.38 C727.17,182.37 720.49,178.56 714.17,178.52 C710.52,178.50 709.37,179.02 706.92,181.77 C703.03,186.11 703.14,189.66 707.51,202.47 C709.36,207.86 710.69,213.51 711.54,219.48 L 711.54 219.51 C712.43,225.83 712.76,232.55 712.55,239.85 ZM 454.04 370.60 C454.45,371.60 454.95,372.67 455.59,374.02 C456.85,376.68 458.97,380.34 460.91,383.28 C461.89,384.86 462.83,386.26 463.58,387.25 C465.79,390.15 466.68,391.54 465.56,391.70 C464.25,391.46 461.81,390.84 459.10,390.03 C458.07,389.72 457.05,389.37 456.04,388.98 L 456.03 388.98 C451.47,387.12 446.34,383.87 442.37,380.45 C439.57,377.89 437.25,375.05 435.62,372.12 C434.65,370.08 433.87,367.74 433.29,365.25 C432.84,361.97 432.52,356.83 432.35,351.08 C432.54,349.23 432.88,347.46 433.37,345.86 C434.26,342.91 435.69,334.88 436.55,328.00 C438.27,314.14 440.06,306.09 443.13,298.31 C444.91,293.82 446.33,292.28 453.77,286.81 C458.50,283.34 464.07,278.88 466.15,276.90 C472.72,270.65 473.21,270.34 472.12,273.10 C471.60,274.42 470.07,277.98 468.72,281.00 C466.68,285.56 463.78,293.94 461.06,302.80 C458.88,309.66 456.96,316.60 455.37,323.50 C452.98,333.85 452.60,337.70 452.55,351.50 L 452.55 351.52 L 452.50 367.50 ZM 485.00 700.54 C485.00,697.92 463.74,650.92 462.72,651.26 C461.57,651.64 431.00,699.66 431.00,701.07 C431.00,701.62 442.08,702.00 458.00,702.00 C480.99,702.00 485.00,701.78 485.00,700.54 ZM 617.74 595.57 C617.07,596.02 616.42,596.44 615.79,596.83 C619.42,594.57 624.11,591.07 630.48,585.92 C639.32,578.77 649.42,569.90 656.15,563.26 C650.72,568.80 644.55,574.32 636.75,580.78 C634.50,582.65 632.41,584.36 630.48,585.92 C625.58,589.89 621.07,593.33 617.74,595.57 Z" fill="rgb(200,148,19)"/>
<path d="M 0.00 499.00 L 0.00 0.00 L 525.50 0.00 L 1051.00 0.00 L 1051.00 499.00 L 1051.00 998.00 L 525.50 998.00 L 0.00 998.00 L 0.00 499.00 ZM 270.33 880.07 C272.44,879.58 274.37,878.96 274.64,878.70 C274.90,878.43 275.95,875.47 276.97,872.11 C278.73,866.27 278.74,865.90 277.06,863.83 C275.38,861.75 275.00,861.71 268.21,862.83 C253.20,865.31 239.69,863.94 236.06,859.58 C234.92,858.20 237.30,858.01 258.64,857.77 L 282.49 857.50 L 283.79 853.53 C286.97,843.83 279.25,831.98 267.36,828.31 C259.26,825.81 236.94,825.78 228.88,828.25 C215.75,832.29 207.91,841.11 207.17,852.65 C206.89,857.11 207.28,860.43 208.43,863.46 C211.72,872.08 222.30,878.83 235.95,881.01 C242.27,882.02 264.58,881.41 270.33,880.07 ZM 418.46 880.02 C420.19,879.36 421.24,878.03 421.65,876.02 C421.98,874.36 422.47,873.00 422.73,873.00 C422.99,873.00 424.54,874.12 426.17,875.49 C430.92,879.49 439.11,881.46 451.00,881.47 C457.46,881.47 462.72,880.97 464.66,880.15 C467.00,879.18 468.34,879.11 469.84,879.92 C472.95,881.58 490.12,881.31 492.62,879.55 C494.47,878.26 494.82,876.32 496.00,861.30 C496.72,852.06 497.31,843.31 497.32,841.86 C497.35,834.50 491.63,829.26 481.20,827.10 C470.89,824.96 441.26,826.40 435.04,829.34 C433.16,830.23 432.25,831.89 431.14,836.42 C429.73,842.23 429.75,842.38 432.02,844.21 C433.29,845.24 434.99,845.84 435.79,845.53 C441.23,843.44 468.74,840.67 466.92,842.39 C466.69,842.61 459.98,843.97 452.00,845.41 C434.24,848.63 426.14,852.11 422.75,858.01 C420.25,862.36 418.83,862.97 411.11,862.99 L 405.73 863.00 L 406.36 858.36 C406.71,855.81 407.00,851.76 407.00,849.36 L 407.00 845.00 L 414.43 845.00 C423.83,845.00 425.00,844.01 425.00,836.00 C425.00,828.07 423.79,827.00 414.85,827.00 L 407.84 827.00 L 408.49 824.06 C409.53,819.30 407.64,817.00 402.71,817.02 C396.32,817.05 384.82,818.90 383.33,820.14 C382.60,820.75 382.00,822.54 382.00,824.12 C382.00,826.73 381.68,827.00 378.61,827.00 C373.22,827.00 371.09,829.52 370.86,836.19 C370.63,842.84 371.95,845.00 376.26,845.00 L 379.28 845.00 L 378.59 856.90 C377.59,873.94 379.31,877.15 391.24,880.52 C396.97,882.14 413.69,881.83 418.46,880.02 ZM 642.06 880.95 C647.71,880.37 653.09,879.49 654.02,878.99 C655.04,878.44 656.40,875.25 657.45,870.92 C659.97,860.54 659.63,860.31 644.08,861.99 C624.61,864.10 612.87,862.17 606.26,855.77 C597.92,847.69 603.61,835.55 617.71,831.36 C624.51,829.33 641.32,829.06 650.35,830.82 C659.27,832.57 660.30,831.66 659.84,822.44 C659.63,818.38 658.92,814.52 658.26,813.86 C656.46,812.06 648.17,811.15 632.86,811.07 C606.15,810.93 588.74,816.79 578.90,829.24 C569.76,840.81 570.93,858.15 581.51,867.91 C593.51,878.96 615.42,883.68 642.06,880.95 ZM 917.80 879.75 C919.70,878.83 920.72,877.18 921.67,873.50 C924.35,863.11 922.57,859.91 915.24,861.95 C913.18,862.52 907.67,862.99 903.00,862.99 C893.38,862.99 888.54,860.98 887.42,856.53 C885.03,847.01 894.55,842.64 912.79,844.88 C919.89,845.75 922.59,845.76 923.62,844.90 C925.53,843.32 925.45,833.08 923.51,830.31 C921.35,827.24 910.42,825.62 896.03,826.25 C877.96,827.03 868.96,831.13 862.50,841.52 C859.81,845.84 859.50,847.18 859.50,854.42 C859.50,861.39 859.87,863.13 862.19,867.07 C866.41,874.25 874.32,878.78 886.50,881.00 C893.09,882.20 914.52,881.34 917.80,879.75 ZM 173.91 878.57 C187.44,875.14 197.56,867.67 202.61,857.39 C208.55,845.29 205.51,829.59 195.68,821.64 C185.26,813.20 178.48,812.00 141.16,812.00 C119.23,812.00 112.00,812.30 111.24,813.25 C110.69,813.94 109.73,823.95 109.09,835.50 C108.46,847.05 107.41,861.17 106.77,866.88 L 105.61 877.27 L 108.05 879.25 C110.40,881.15 111.66,881.21 139.00,880.71 C160.63,880.32 169.05,879.81 173.91,878.57 ZM 312.00 879.00 C313.48,877.52 314.01,875.64 314.03,871.75 C314.09,862.47 315.88,851.79 317.74,849.70 C321.99,844.92 333.69,843.31 338.10,846.88 L 340.42 848.76 L 339.23 863.12 C338.20,875.66 338.24,877.67 339.56,878.99 C340.67,880.10 343.92,880.59 351.95,880.84 C366.88,881.30 366.46,881.81 367.55,861.90 C368.60,842.53 368.53,840.92 366.45,836.53 C362.16,827.51 342.52,823.36 324.01,827.57 C318.94,828.72 316.59,828.85 315.12,828.07 C312.27,826.54 292.80,826.68 290.74,828.25 C289.44,829.24 288.89,832.68 288.05,845.00 C287.47,853.53 286.49,864.30 285.88,868.94 C284.79,877.13 284.83,877.44 286.99,879.19 C288.82,880.68 291.08,881.00 299.61,881.00 C308.67,881.00 310.26,880.74 312.00,879.00 ZM 530.00 879.00 C531.53,877.47 532.00,875.66 532.01,871.25 C532.02,864.41 534.71,825.25 535.58,819.41 C536.55,812.80 535.03,812.00 521.50,812.00 C513.00,812.00 509.78,812.36 508.72,813.43 C507.72,814.42 507.09,818.59 506.61,827.18 C506.24,833.95 505.24,848.04 504.39,858.48 L 502.85 877.46 L 505.04 879.23 C506.81,880.67 509.16,881.00 517.61,881.00 C526.67,881.00 528.26,880.74 530.00,879.00 ZM 689.49 879.63 C690.89,878.61 691.44,876.68 691.72,871.88 C692.62,855.93 695.12,822.15 695.63,818.92 C696.59,812.88 694.79,812.00 681.50,812.00 C672.98,812.00 669.79,812.36 668.71,813.43 C667.72,814.42 667.07,818.52 666.60,826.68 C666.22,833.18 665.21,847.25 664.35,857.95 L 662.79 877.41 L 665.00 879.20 C666.81,880.67 669.10,881.00 677.42,881.00 C684.46,881.00 688.20,880.58 689.49,879.63 ZM 726.78 879.44 C728.75,878.06 729.00,877.01 729.00,870.19 C729.00,865.96 729.52,855.35 730.15,846.62 C730.96,835.58 731.00,830.22 730.27,829.07 C729.52,827.86 729.61,826.88 730.62,825.51 C732.32,823.19 732.44,813.84 730.80,812.20 C730.00,811.40 725.54,811.00 717.34,811.00 C706.23,811.00 704.97,811.18 704.04,812.93 C702.75,815.33 702.70,823.98 703.96,825.97 C704.54,826.88 704.52,827.88 703.90,828.62 C703.36,829.27 702.47,837.83 701.92,847.65 C701.37,857.47 700.57,867.79 700.14,870.58 C699.23,876.49 699.89,879.05 702.57,880.11 C703.63,880.52 709.01,880.89 714.53,880.93 C722.07,880.98 725.11,880.61 726.78,879.44 ZM 761.79 879.25 C763.49,877.78 763.97,875.53 764.80,865.24 C765.90,851.55 767.07,848.70 772.55,846.42 C776.53,844.75 783.74,844.57 787.59,846.03 L 790.30 847.07 L 789.63 859.71 C789.25,866.66 788.72,873.29 788.43,874.43 C788.14,875.57 788.57,877.40 789.37,878.50 C790.65,880.25 792.20,880.54 801.67,880.82 C816.81,881.26 816.11,882.10 817.69,861.86 C818.39,852.86 818.72,843.89 818.42,841.92 C817.51,835.90 814.48,832.11 808.22,829.19 C802.89,826.69 801.57,826.51 789.00,826.53 C779.24,826.55 774.36,826.98 771.39,828.11 C767.93,829.42 766.98,829.46 765.45,828.34 C762.78,826.39 742.67,826.47 740.70,828.44 C739.71,829.44 739.05,833.54 738.55,841.77 C738.16,848.31 737.26,858.78 736.54,865.05 C735.82,871.31 735.47,877.05 735.75,877.80 C736.64,880.11 740.11,880.87 750.14,880.94 C757.95,880.99 760.16,880.67 761.79,879.25 ZM 851.55 879.58 C853.30,878.31 853.55,876.40 854.12,860.33 C854.46,850.53 855.07,839.97 855.47,836.87 C855.92,833.41 855.80,830.49 855.15,829.27 C854.57,828.19 854.47,826.90 854.92,826.40 C856.21,824.99 856.92,814.61 855.86,812.71 C855.04,811.24 853.16,811.00 842.65,811.00 C834.46,811.00 830.00,811.40 829.20,812.20 C827.75,813.65 827.58,825.62 828.99,826.49 C829.61,826.88 829.47,827.92 828.61,829.30 C827.71,830.73 827.01,836.38 826.59,845.50 C826.24,853.20 825.47,863.53 824.88,868.46 C823.83,877.14 823.87,877.48 826.01,879.21 C827.83,880.68 830.13,881.00 838.92,881.00 C846.57,881.00 850.17,880.60 851.55,879.58 ZM 928.80 805.80 C929.46,805.14 930.00,802.01 930.00,798.84 C930.00,794.16 929.63,792.87 928.07,792.04 C925.46,790.64 106.23,790.58 102.57,791.98 C100.22,792.87 100.00,793.44 100.00,798.78 C100.00,801.98 100.54,805.14 101.20,805.80 C102.95,807.55 927.05,807.55 928.80,805.80 ZM 704.50 784.00 C725.30,782.50 736.09,780.91 737.89,779.09 C738.84,778.14 740.69,771.60 742.40,763.17 C746.13,744.73 746.21,744.86 732.78,747.32 C712.91,750.94 707.90,751.43 690.50,751.44 C669.75,751.45 663.35,750.27 650.49,744.05 C639.35,738.66 633.87,733.55 629.27,724.24 C625.63,716.86 625.50,716.24 625.50,706.05 C625.51,695.96 625.67,695.16 629.19,687.77 C637.63,670.08 653.61,659.49 677.95,655.45 C691.16,653.25 713.08,653.94 730.50,657.09 C744.08,659.55 745.96,659.63 747.20,657.80 C748.53,655.83 747.05,629.90 745.47,627.39 C743.92,624.93 736.37,623.73 711.00,621.91 C657.38,618.06 612.14,631.56 590.32,657.92 C578.04,672.75 572.33,690.33 573.24,710.45 C574.46,737.07 586.37,755.27 611.24,768.50 C636.73,782.06 665.40,786.83 704.50,784.00 ZM 911.40 782.41 C921.69,781.26 925.93,780.38 927.09,779.16 C928.44,777.76 932.13,762.31 933.73,751.44 C934.57,745.67 932.95,745.43 914.76,748.59 C894.26,752.15 866.30,752.66 854.50,749.69 C837.61,745.43 823.43,735.55 818.38,724.53 C805.25,695.83 823.52,665.88 859.73,656.76 C872.52,653.54 901.10,653.63 919.00,656.95 C933.06,659.55 934.95,659.64 936.21,657.80 C937.55,655.83 936.08,629.91 934.48,627.39 C932.95,624.99 926.24,623.89 901.00,621.90 C847.78,617.71 801.23,631.48 779.31,657.92 C760.98,680.02 756.79,712.04 768.90,737.50 C775.86,752.11 785.97,761.53 804.44,770.58 C817.17,776.82 836.35,782.17 852.01,783.85 C864.16,785.16 893.28,784.45 911.40,782.41 ZM 141.44 779.78 C142.49,778.28 143.00,775.25 143.01,770.53 C143.03,762.26 149.72,680.94 150.45,680.22 C150.72,679.95 151.44,681.02 152.04,682.61 C152.64,684.20 155.18,690.67 157.69,697.00 C160.19,703.33 168.05,724.47 175.15,744.00 C182.25,763.53 188.81,780.06 189.72,780.75 C192.31,782.70 232.33,782.52 233.96,780.54 C234.63,779.74 243.61,761.86 253.92,740.79 C264.23,719.73 275.42,697.10 278.78,690.50 L 284.90 678.50 L 284.95 686.09 C285.02,696.64 282.14,771.88 281.54,775.27 C281.19,777.18 281.65,778.65 283.02,780.02 C284.86,781.86 286.40,782.00 305.43,782.00 C322.67,782.00 326.10,781.75 327.43,780.43 C328.78,779.08 329.00,775.05 329.01,751.68 C329.01,721.80 330.48,669.64 332.03,644.20 C332.71,632.96 332.69,627.30 331.97,625.95 C330.97,624.08 329.64,624.00 299.62,624.00 C263.73,624.00 267.22,623.01 262.48,634.50 C260.89,638.35 252.79,654.33 244.47,670.00 C236.16,685.67 226.46,704.68 222.93,712.24 C219.39,719.80 216.26,725.99 215.96,725.99 C215.66,726.00 214.14,722.06 212.57,717.25 C208.57,704.90 198.39,678.40 190.20,658.97 C186.36,649.87 182.23,638.85 181.01,634.47 C179.78,630.08 178.33,625.94 177.77,625.25 C177.00,624.30 169.38,624.00 145.91,624.00 C117.56,624.00 115.00,624.14 114.14,625.75 C113.62,626.71 112.46,636.05 111.54,646.50 C109.12,674.07 100.28,754.97 98.53,765.50 C95.65,782.85 94.55,782.00 120.01,782.00 C139.42,782.00 139.92,781.95 141.44,779.78 ZM 394.75 769.50 C398.75,762.90 405.95,751.10 410.75,743.27 L 419.50 729.05 L 454.50 729.03 L 489.50 729.01 L 496.67 744.79 C500.61,753.47 505.51,764.83 507.56,770.04 C509.61,775.24 511.98,780.06 512.83,780.75 C513.98,781.67 520.67,782.00 538.36,782.00 C559.27,782.00 562.58,781.79 564.17,780.35 C566.58,778.17 566.46,776.35 563.61,771.35 C560.37,765.69 515.21,671.01 504.53,647.50 C499.79,637.06 495.24,627.49 494.42,626.24 L 492.93 623.97 L 464.22 624.23 L 435.50 624.50 L 428.50 635.29 C416.92,653.13 354.37,745.44 343.31,761.00 C337.64,768.97 333.01,776.49 333.00,777.70 C333.00,778.91 333.79,780.36 334.75,780.93 C335.85,781.58 345.91,781.87 362.00,781.73 L 387.50 781.50 L 394.75 769.50 ZM 443.26 600.09 C444.57,599.59 446.44,597.98 447.40,596.52 C448.36,595.05 451.77,583.42 454.99,570.68 C467.63,520.59 481.33,489.00 497.93,471.62 C506.42,462.72 511.95,460.02 521.72,460.01 C528.68,460.00 529.41,460.24 541.69,466.62 C566.42,479.45 591.82,496.35 605.19,508.86 C611.69,514.94 614.48,516.12 616.80,513.80 C617.73,512.87 618.00,513.05 618.00,514.61 C618.00,519.23 611.78,542.99 605.13,563.77 C597.20,588.56 596.55,593.20 600.40,597.68 C602.33,599.92 603.59,600.45 606.82,600.37 C611.81,600.24 618.86,595.62 636.75,580.78 C656.52,564.39 665.85,554.10 679.17,534.00 C693.53,512.35 694.29,510.89 693.02,507.56 C692.27,505.58 691.35,505.00 688.96,505.00 C685.40,505.00 682.72,507.30 659.25,530.44 C650.86,538.71 644.00,545.00 644.00,544.42 C644.00,542.06 653.14,507.23 654.69,503.69 C657.20,497.95 661.37,492.75 688.96,460.88 C709.57,437.09 714.26,431.14 714.03,429.06 C713.38,422.96 714.08,396.81 715.45,376.50 C716.26,364.40 717.45,344.38 718.10,332.00 L 719.27 309.50 L 726.39 299.00 C730.30,293.23 736.42,285.53 740.00,281.89 C745.99,275.79 757.97,267.00 760.30,267.00 C761.63,267.00 760.46,283.72 757.89,301.50 C755.55,317.75 750.24,342.92 745.97,358.05 C742.30,371.08 742.23,373.45 745.50,375.59 C747.73,377.05 748.25,377.07 750.25,375.75 C755.04,372.59 767.89,345.78 775.03,324.05 C785.43,292.35 793.03,250.95 791.60,233.77 C789.77,211.83 783.16,195.01 769.85,178.48 C750.99,155.03 715.38,136.17 686.50,134.33 C675.48,133.63 669.80,135.00 665.40,139.40 C657.03,147.77 658.29,159.19 672.40,202.68 C674.86,210.28 677.39,218.98 678.01,222.00 C678.63,225.02 679.37,241.68 679.66,259.00 C680.09,285.46 679.94,290.81 678.73,292.41 C677.46,294.10 677.23,291.65 676.71,271.41 C675.67,230.27 670.81,212.12 659.97,208.87 C651.32,206.28 640.51,211.27 625.93,224.59 C617.89,231.94 602.25,248.31 590.66,261.50 C586.80,265.90 583.29,269.64 582.87,269.81 C582.13,270.12 581.78,269.02 578.57,256.38 C575.96,246.10 569.09,227.01 564.53,217.34 C546.87,179.90 525.66,168.78 498.64,182.80 C466.78,199.34 433.73,265.18 428.06,323.42 C425.48,350.01 427.29,368.42 433.66,380.11 C439.22,390.33 450.81,397.80 464.82,400.18 C471.08,401.25 472.53,401.22 474.82,399.93 C478.40,397.93 478.91,393.71 475.86,391.29 C463.78,381.71 458.97,367.13 460.99,346.25 C462.26,333.21 463.49,326.84 467.63,312.00 C472.00,296.35 476.49,284.96 484.58,269.00 C491.98,254.40 499.01,243.41 505.21,236.75 C509.09,232.59 510.15,232.00 513.69,232.00 C517.20,232.00 518.29,232.59 521.81,236.41 C527.89,243.01 529.89,247.41 545.45,288.40 C551.84,305.24 553.00,309.23 553.01,314.40 C553.01,322.67 554.52,327.51 558.43,331.77 C561.34,334.95 562.37,335.40 567.61,335.77 C572.81,336.14 574.24,335.80 579.78,332.84 C585.29,329.91 589.13,326.07 611.18,301.50 C625.00,286.10 636.73,273.33 637.25,273.13 C637.85,272.90 637.98,276.71 637.62,283.13 C637.29,288.83 636.77,302.05 636.46,312.50 C636.15,322.95 635.03,354.23 633.99,382.00 C632.94,409.77 631.77,441.47 631.38,452.43 C630.75,470.58 630.49,472.66 628.53,475.56 C627.25,477.44 625.22,484.00 623.55,491.62 C619.70,509.31 619.58,509.48 615.57,502.86 C608.17,490.63 591.21,468.59 581.11,458.07 C564.26,440.53 544.42,427.57 528.07,423.42 C518.36,420.96 502.40,421.80 494.58,425.19 C485.67,429.05 476.86,436.10 469.50,445.27 C464.25,451.81 460.04,459.25 448.96,481.50 C441.30,496.90 432.94,513.06 430.39,517.41 L 425.75 525.32 L 423.88 522.91 C410.88,506.19 383.83,460.53 371.04,433.71 C347.21,383.76 334.90,345.79 328.06,301.14 C323.53,271.61 322.49,239.69 325.42,220.21 C330.92,183.52 349.14,162.03 384.49,150.53 C408.89,142.58 424.95,143.35 467.50,154.49 C515.42,167.03 532.45,166.18 567.50,149.49 C582.43,142.38 592.32,138.70 605.91,135.22 C615.82,132.67 617.85,132.50 637.50,132.54 C654.47,132.57 659.30,132.89 662.64,134.21 C666.32,135.65 667.03,135.67 668.89,134.36 C671.53,132.52 671.67,127.92 669.16,125.64 C667.15,123.83 643.63,112.84 635.52,109.93 C632.76,108.94 627.35,106.97 623.50,105.54 C614.72,102.30 599.94,99.04 593.93,99.02 C582.49,98.98 563.50,103.74 548.57,110.40 C524.38,121.19 492.16,121.21 454.00,110.46 C425.20,102.35 409.66,99.78 388.50,99.63 C375.26,99.53 369.79,99.91 363.75,101.32 C349.20,104.73 337.21,110.84 325.48,120.83 C295.23,146.60 279.76,193.76 279.67,260.50 C279.64,284.97 280.50,293.03 285.64,316.00 C293.50,351.20 306.62,387.51 328.98,436.00 C341.05,462.17 365.84,508.89 377.00,526.49 C377.83,527.79 380.48,532.15 382.91,536.18 C401.49,567.03 425.33,595.61 436.06,599.90 C439.22,601.16 440.36,601.19 443.26,600.09 ZM 239.50 875.10 C226.01,873.39 216.16,867.60 213.89,860.04 C210.41,848.41 220.04,834.79 233.78,831.94 C241.77,830.28 262.34,831.16 267.50,833.38 C274.92,836.58 280.00,843.22 280.00,849.72 L 280.00 852.50 L 255.25 852.50 L 230.50 852.50 L 230.19 856.27 C229.50,864.61 240.40,869.75 256.47,868.65 C261.44,868.31 267.36,867.75 269.64,867.40 L 273.78 866.77 L 272.69 870.88 C271.62,874.87 271.45,875.00 267.45,875.00 C265.17,875.00 259.30,875.19 254.40,875.43 C249.51,875.66 242.80,875.52 239.50,875.10 ZM 264.00 846.40 C264.00,844.78 262.72,842.52 260.60,840.40 C257.37,837.17 256.85,837.00 250.06,837.00 C242.05,837.00 236.63,839.11 233.09,843.61 C229.00,848.81 229.52,849.00 247.50,849.00 L 264.00 849.00 L 264.00 846.40 ZM 395.56 874.98 C392.85,874.50 389.47,873.24 388.06,872.18 L 385.50 870.24 L 385.82 854.62 L 386.15 839.00 L 381.57 839.00 C377.03,839.00 377.00,838.98 377.00,835.55 L 377.00 832.10 L 382.25 831.80 L 387.50 831.50 L 387.80 827.34 L 388.11 823.18 L 394.30 822.52 C397.71,822.15 401.32,821.62 402.33,821.34 C403.96,820.87 404.13,821.39 403.87,826.16 L 403.59 831.50 L 411.79 831.79 L 420.00 832.08 L 420.00 835.79 L 420.00 839.50 L 411.77 839.50 L 403.54 839.50 L 402.83 843.50 C402.44,845.70 402.09,851.43 402.06,856.23 C402.00,864.47 402.14,865.05 404.51,866.60 C406.37,867.82 408.57,868.13 413.10,867.80 L 419.18 867.36 L 418.57 870.40 C418.24,872.07 417.63,873.74 417.23,874.12 C415.98,875.28 400.75,875.89 395.56,874.98 ZM 442.46 875.03 C425.80,872.52 422.40,860.27 436.60,853.88 C438.85,852.87 447.85,850.84 456.60,849.38 C465.34,847.91 473.06,846.27 473.75,845.73 C475.82,844.11 475.25,839.29 472.78,837.56 C469.87,835.52 455.09,835.49 445.62,837.49 C441.83,838.30 438.40,838.75 438.00,838.50 C436.52,837.58 438.25,833.16 440.35,832.52 C441.53,832.16 449.92,831.62 459.00,831.31 C478.83,830.63 485.88,831.73 490.32,836.17 C493.10,838.95 493.23,839.44 492.62,844.81 C492.26,847.94 491.68,856.03 491.33,862.79 L 490.69 875.08 L 482.60 874.79 L 474.50 874.50 L 474.55 871.00 C474.58,869.08 474.80,864.12 475.05,860.00 C475.57,851.25 476.87,851.73 461.50,855.00 C450.92,857.25 446.61,859.16 444.34,862.61 C443.11,864.46 443.18,865.00 444.89,867.11 C446.68,869.33 447.51,869.50 456.28,869.50 L 465.73 869.50 L 464.29 872.50 C462.88,875.43 462.66,875.50 455.17,875.64 C450.95,875.72 445.23,875.44 442.46,875.03 ZM 450.17 865.12 C448.46,864.04 450.14,863.37 459.32,861.43 C468.43,859.52 468.81,859.56 468.27,862.37 C467.87,864.46 467.10,864.81 461.76,865.37 C453.87,866.19 451.78,866.15 450.17,865.12 ZM 616.68 874.98 C602.56,873.26 588.47,867.19 583.70,860.77 C578.44,853.68 577.64,845.46 581.42,837.34 C586.12,827.26 595.99,820.41 610.33,817.30 C618.01,815.64 641.97,815.07 650.15,816.36 C654.73,817.08 654.81,817.15 655.24,821.30 C655.48,823.61 655.61,825.60 655.53,825.72 C655.45,825.85 653.61,825.42 651.44,824.77 C644.91,822.82 624.46,823.22 618.00,825.42 C611.15,827.75 604.89,831.96 601.32,836.65 C597.37,841.82 596.83,851.04 600.19,855.98 C605.74,864.15 615.28,867.56 632.00,867.34 C638.33,867.26 645.75,866.74 648.50,866.18 C651.25,865.62 653.63,865.30 653.79,865.46 C653.96,865.62 653.59,867.72 652.99,870.13 C652.12,873.60 651.44,874.51 649.69,874.55 C648.49,874.58 642.10,874.88 635.50,875.21 C628.90,875.54 620.43,875.44 616.68,874.98 ZM 888.78 874.98 C876.50,873.04 868.22,867.26 866.02,859.08 C863.58,850.02 868.49,840.01 878.03,834.60 L 883.50 831.50 L 901.17 831.50 C910.88,831.50 919.03,831.72 919.28,832.00 C919.52,832.28 919.98,834.23 920.31,836.34 C920.82,839.67 920.68,840.09 919.20,839.51 C915.71,838.16 900.47,837.77 896.19,838.93 C887.12,841.41 880.83,850.45 882.98,857.94 C884.38,862.83 886.69,864.85 892.89,866.66 C898.32,868.23 912.93,868.15 917.12,866.51 C918.57,865.95 918.63,866.39 917.71,870.44 C916.75,874.64 916.42,875.00 913.58,875.01 C911.89,875.01 906.90,875.21 902.50,875.45 C898.10,875.69 891.92,875.48 888.78,874.98 ZM 113.36 867.88 C115.07,848.83 115.96,834.71 115.98,826.17 L 116.00 816.85 L 147.25 817.17 L 178.50 817.50 L 184.50 820.30 C195.62,825.50 200.94,832.84 200.98,843.07 C201.02,854.81 195.33,863.84 184.69,868.89 C175.37,873.32 168.98,874.15 139.60,874.73 L 112.70 875.27 L 113.36 867.88 ZM 167.31 863.72 C175.06,860.86 177.44,859.02 180.08,853.84 C185.79,842.65 181.79,831.15 170.54,826.45 C167.68,825.26 162.20,824.65 150.82,824.25 L 135.06 823.70 L 134.17 826.10 C133.68,827.42 132.99,833.90 132.62,840.50 C132.26,847.10 131.68,855.83 131.33,859.89 L 130.70 867.28 L 145.60 866.76 C158.23,866.32 161.54,865.86 167.31,863.72 ZM 301.00 875.20 C296.88,875.04 293.17,874.57 292.76,874.16 C292.36,873.76 292.73,866.69 293.59,858.46 C294.45,850.23 295.01,840.91 294.83,837.75 L 294.50 832.00 L 303.25 832.00 L 312.00 832.00 L 312.00 835.00 C312.00,838.65 312.84,838.72 317.59,835.50 C323.18,831.71 328.27,830.77 340.97,831.17 C354.17,831.59 359.22,833.37 362.27,838.68 C363.98,841.65 364.02,842.95 362.91,858.68 L 361.72 875.50 L 354.11 875.17 C349.92,875.00 346.13,874.49 345.69,874.06 C345.24,873.63 345.37,867.84 345.98,861.21 C347.33,846.52 346.34,842.88 340.33,840.36 C334.50,837.93 324.35,838.84 319.16,842.27 C312.29,846.82 311.56,848.78 309.24,869.00 L 308.50 875.50 L 301.00 875.20 ZM 518.25 875.21 C510.49,874.94 510.00,874.79 510.01,872.71 C510.01,871.49 510.68,862.40 511.49,852.50 C512.31,842.60 512.98,830.56 512.99,825.75 L 513.00 817.00 L 522.13 817.00 L 531.26 817.00 L 530.65 821.75 C530.32,824.36 529.35,836.85 528.49,849.50 C527.63,862.15 526.84,873.17 526.72,874.00 C526.54,875.22 524.97,875.45 518.25,875.21 ZM 678.25 875.21 C668.50,874.87 669.33,877.78 671.49,851.50 C672.31,841.60 672.98,829.79 672.99,825.25 L 673.00 817.00 L 682.13 817.00 L 691.26 817.00 L 690.66 820.75 C690.33,822.81 689.36,835.30 688.51,848.50 C687.65,861.70 686.85,873.17 686.73,874.00 C686.54,875.22 684.97,875.45 678.25,875.21 ZM 715.00 875.00 C707.25,874.54 706.52,874.32 706.69,872.50 C708.06,857.96 709.16,839.48 708.85,836.18 L 708.45 832.00 L 717.83 832.00 C727.12,832.00 727.21,832.02 726.64,834.29 C726.33,835.55 725.57,845.11 724.97,855.54 C724.37,865.97 723.79,874.72 723.69,875.00 C723.59,875.28 719.67,875.28 715.00,875.00 ZM 717.75 822.26 C710.96,821.96 710.00,821.68 710.00,820.04 C710.00,819.01 709.73,817.45 709.39,816.58 C708.87,815.21 710.00,815.00 717.89,815.00 L 727.00 815.00 L 727.00 819.00 C727.00,821.20 726.66,822.91 726.25,822.80 C725.84,822.69 722.01,822.44 717.75,822.26 ZM 803.50 875.00 L 795.50 874.50 L 795.61 871.50 C795.67,869.85 796.02,863.78 796.39,858.00 C797.18,845.90 796.42,843.48 790.99,840.75 C786.90,838.70 777.43,838.42 773.30,840.22 C764.36,844.10 761.22,849.48 760.40,862.37 C759.53,875.89 760.19,875.00 751.04,875.00 C746.68,875.00 742.91,874.66 742.66,874.25 C742.41,873.84 742.81,868.10 743.56,861.50 C744.30,854.90 744.93,845.56 744.96,840.75 L 745.00 832.00 L 753.83 832.00 L 762.65 832.00 L 762.21 835.00 C761.65,838.81 762.62,838.77 769.10,834.75 L 774.33 831.50 L 788.91 831.50 C804.88,831.50 807.68,832.25 812.02,837.73 C814.11,840.36 814.18,841.10 813.53,852.50 C813.14,859.10 812.53,866.97 812.17,870.00 L 811.50 875.50 L 803.50 875.00 ZM 831.51 874.01 C831.17,873.47 831.36,868.63 831.92,863.26 C832.48,857.89 833.07,848.67 833.22,842.76 L 833.50 832.02 L 842.39 832.01 L 851.28 832.00 L 850.63 837.75 C850.27,840.91 849.69,850.59 849.33,859.25 L 848.69 875.00 L 840.40 875.00 C835.85,875.00 831.84,874.56 831.51,874.01 ZM 842.25 822.26 L 834.00 821.92 L 834.00 818.46 L 834.00 815.00 L 843.00 815.00 L 852.00 815.00 L 852.00 819.00 C852.00,821.20 851.66,822.91 851.25,822.80 C850.84,822.68 846.79,822.44 842.25,822.26 ZM 515.37 801.25 L 106.23 801.00 L 105.76 798.50 L 105.28 796.00 L 515.64 796.00 L 926.00 796.00 L 926.00 799.00 C926.00,800.65 925.66,801.89 925.25,801.75 C924.84,801.61 740.39,801.39 515.37,801.25 ZM 439.17 696.09 C440.29,693.03 460.67,662.11 461.41,662.33 C462.16,662.56 477.00,695.14 477.00,696.56 C477.00,696.80 468.41,697.00 457.92,697.00 C446.90,697.00 438.97,696.62 439.17,696.09 ZM 431.01 526.75 C433.66,522.76 438.38,514.66 441.50,508.75 C444.62,502.84 447.36,498.00 447.59,498.00 C448.53,498.00 432.96,527.89 430.49,530.83 C425.77,536.44 426.05,534.21 431.01,526.75 ZM 664.00 446.55 C664.00,445.75 665.34,430.56 666.98,412.80 C670.23,377.69 675.00,322.15 675.00,319.55 C675.00,318.24 675.38,318.13 677.00,319.00 C678.79,319.96 678.95,320.79 678.48,326.79 C678.18,330.48 677.28,343.17 676.47,355.00 C674.42,384.74 668.92,443.02 667.89,445.75 C666.96,448.24 664.00,448.84 664.00,446.55 ZM 446.01 268.98 C445.97,267.42 452.88,250.93 457.96,240.45 C468.88,217.93 483.86,198.44 497.00,189.63 C506.06,183.57 521.36,180.04 525.97,182.96 C528.05,184.28 527.46,184.50 518.70,185.71 C506.64,187.36 499.39,191.41 487.92,202.90 C475.12,215.72 466.31,229.32 450.32,261.00 C447.96,265.67 446.02,269.26 446.01,268.98 ZM 721.00 235.54 C721.00,221.79 719.35,211.63 715.42,201.19 C714.09,197.66 713.00,193.24 713.00,191.38 C713.00,188.23 713.22,188.00 716.27,188.00 C724.51,188.00 745.20,208.43 753.31,224.57 L 755.85 229.64 L 749.18 232.92 C745.50,234.72 738.00,238.74 732.51,241.85 C727.01,244.96 722.17,247.65 721.76,247.83 C721.34,248.02 721.00,242.49 721.00,235.54 ZM 668.00 144.04 C668.00,142.80 673.31,140.00 675.65,140.00 C678.08,140.00 676.34,141.54 671.75,143.46 C669.67,144.33 668.00,144.59 668.00,144.04 ZM 136.42 853.89 C136.77,849.27 137.33,842.24 137.65,838.25 L 138.23 831.00 L 151.65 831.00 C166.44,831.00 170.24,831.94 173.83,836.51 C177.80,841.56 176.39,850.59 170.85,855.63 C165.72,860.30 162.08,861.31 148.63,861.80 L 135.77 862.27 L 136.42 853.89 Z" fill="rgb(254,254,254)"/>
</g>
</svg>